<?xml version="1.0" standalone="no"?>
<!DOCTYPE svg PUBLIC "-//W3C//DTD SVG 1.1//EN" "http://www.w3.org/Graphics/SVG/1.1/DTD/svg11.dtd" >
<svg>
<metadata>
Created by FontForge 20090914 at Mon Dec 14 10:03:46 2015
 By www-data
Copyright (c) 1990-2000 ParaType, Inc. All Rights Reserved. ITC Avant Garde Gothic is a registered trade mark of International Typeface Corporation.
</metadata>
<defs>
<font id="AvantGardeGothicC" horiz-adv-x="554" >
  <font-face 
    font-family="AvantGardeGothicC"
    font-weight="400"
    font-stretch="normal"
    units-per-em="1000"
    panose-1="0 0 5 0 0 0 0 0 0 0"
    ascent="786"
    descent="-214"
    x-height="547"
    cap-height="740"
    bbox="-454 -214.001 1156 952"
    underline-thickness="50"
    underline-position="-50"
    unicode-range="U+0020-U+2122"
  />
<missing-glyph horiz-adv-x="233" 
 />
    <glyph glyph-name=".notdef" horiz-adv-x="233" 
 />
    <glyph glyph-name="space" unicode=" " horiz-adv-x="233" 
 />
    <glyph glyph-name="space" unicode="&#xa0;" horiz-adv-x="233" 
 />
    <glyph glyph-name="exclam" unicode="!" horiz-adv-x="295" 
d="M111 0v126h74v-126h-74zM111 193v547h74v-547h-74z" />
    <glyph glyph-name="quotedbl" unicode="&#x22;" horiz-adv-x="309" 
d="M73 514v226h52v-226h-52zM184 514v226h52v-226h-52z" />
    <glyph glyph-name="numbersign" unicode="#" 
d="M258 0h-42l74 250h-96l-74 -250h-42l74 250h-150l17 58h150l36 124h-150l17 58h150l73 250h42l-73 -250h96l73 250h42l-73 -250h150l-17 -58h-150l-36 -124h150l-17 -58h-150zM307 308l36 124h-96l-36 -124h96z" />
    <glyph glyph-name="dollar" unicode="$" 
d="M245 -54l-0.00585938 82.9971c-48 6.66699 -88.333 27.167 -121 61.5s-49 75.833 -49 124.5v12h70c-0.666992 -40.667 11.5 -73.834 36.5 -99.501s57.167 -38.5 96.5 -38.5s70.833 12.667 94.5 38s35.5 56.333 35.5 93c0 24 -4.16699 44.667 -12.5 62
s-20.666 31.333 -36.999 42s-30.166 18.334 -41.499 23.001s-26 9.66699 -44 15s-33.667 10.5 -47 15.5s-28.666 12.667 -45.999 23s-31.5 21.833 -42.5 34.5s-20.333 28.834 -28 48.501s-11.5 41.834 -11.5 66.501c0 45.333 13.833 84.166 41.5 116.499
s62.834 51.833 105.501 58.5v83h65v-83c46.667 -4.66699 85 -24.167 115 -58.5s45.667 -75.5 47 -123.5h-70c0 36.667 -11.333 66.167 -34 88.5s-51.667 33.5 -87 33.5c-34 0 -61.167 -11 -81.5 -33s-30.5 -51 -30.5 -87c0 -19.333 3.33301 -36 10 -50
s16.667 -25.333 30 -34s25.5 -15.167 36.5 -19.5s25.5 -9.16602 43.5 -14.499s34.167 -10.666 48.5 -15.999s30.833 -13.666 49.5 -24.999s34.334 -23.833 47.001 -37.5s23.334 -31.667 32.001 -54s13 -46.833 13 -73.5c0 -52 -16.667 -95.333 -50 -130
s-73 -55.334 -119 -62.001v-83h-65z" />
    <glyph glyph-name="percent" unicode="%" horiz-adv-x="775" 
d="M185 0l332 740h72l-332 -740h-72zM18 578c0 48.667 17.167 90 51.5 124s75.5 51 123.5 51c48.667 0 90 -16.833 124 -50.5s51 -75.167 51 -124.5c0 -48 -17 -89.167 -51 -123.5s-75.333 -51.5 -124 -51.5s-90 17 -124 51s-51 75.333 -51 124zM88 578
c0 -29.333 10.335 -54.168 31.002 -74.501s45.334 -30.5 74.001 -30.5c29.333 0 54.166 10.333 74.499 31s30.5 45.334 30.5 74.001c0 29.333 -10.333 54.166 -31 74.499s-45.334 30.5 -74.001 30.5s-53.334 -10.167 -74.001 -30.5s-31 -45.166 -31 -74.499z
M407.002 161.998c0 48.667 17.167 90 51.5 124s75.5 51 123.5 51c49.333 0 90.833 -16.833 124.5 -50.5s50.5 -75.167 50.5 -124.5c0 -48 -17 -89.167 -51 -123.5s-75.333 -51.5 -124 -51.5s-90 17 -124 51s-51 75.333 -51 124zM477.002 161.998
c0 -29.333 10.1689 -54.168 30.502 -74.501s45.166 -30.5 74.499 -30.5s54.166 10.333 74.499 31s30.5 45.334 30.5 74.001c0 29.333 -10.167 54.166 -30.5 74.499s-45.166 30.5 -74.499 30.5c-28.667 0 -53.334 -10.167 -74.001 -30.5s-31 -45.166 -31 -74.499z" />
    <glyph glyph-name="ampersand" unicode="&#x26;" horiz-adv-x="757" 
d="M602 480l83.002 0.000976562l-137 -261l187 -182l-53 -50l-169 165l-16 -27c-26.667 -46 -55.834 -80.5 -87.501 -103.5s-72.834 -34.5 -123.501 -34.5c-69.333 0 -124.833 21.667 -166.5 65s-62.5 98 -62.5 164c0 30 5.5 57.833 16.5 83.5s25.667 47 44 64
s36.333 31 54 42s36.167 19.833 55.5 26.5c-54.667 45.333 -82 98 -82 158c0 42.667 15.167 80.5 45.5 113.5s72.833 49.5 127.5 49.5c58 0 102.833 -17.833 134.5 -53.5s47.5 -76.834 47.5 -123.501c0 -68.667 -48.333 -124 -145 -166l140 -138zM280.002 379.001
l-37 -17.001c-23.333 -10.667 -42.833 -23 -58.5 -37s-27.167 -28.333 -34.5 -43s-12.333 -27.667 -15 -39s-4 -22.333 -4 -33c0 -43.333 14 -80.166 42 -110.499s63.667 -45.5 107 -45.5c36 0 66.667 10 92 30s48 49 68 87l18 34zM293.002 471l11 -8.99902
c81.333 31.333 122 72.666 122 123.999c0 28 -9.33301 51.667 -28 71s-44 29 -76 29c-28 0 -52.167 -8.16699 -72.5 -24.5s-30.5 -39.166 -30.5 -68.499c0 -40.667 24.667 -81.334 74 -122.001z" />
    <glyph glyph-name="quotesingle" unicode="'" horiz-adv-x="198" 
d="M74 514v226h50v-226h-50z" />
    <glyph glyph-name="parenleft" unicode="(" horiz-adv-x="369" 
d="M334 740v-64.998c-70 -41.333 -121.5 -95.833 -154.5 -163.5s-49.5 -135.834 -49.5 -204.501s16.5 -136.834 49.5 -204.501s84.5 -122.167 154.5 -163.5v-65c-84 33.333 -151.333 89 -202 167s-76 166.667 -76 266s25.333 188 76 266s118 133.667 202 167z" />
    <glyph glyph-name="parenright" unicode=")" horiz-adv-x="369" 
d="M35 -126v64.998c70 41.333 121.5 95.833 154.5 163.5s49.5 135.834 49.5 204.501s-16.5 136.834 -49.5 204.501s-84.5 122.167 -154.5 163.5v65c84 -33.333 151.333 -89 202 -167s76 -166.667 76 -266s-25.333 -188 -76 -266s-118 -133.667 -202 -167z" />
    <glyph glyph-name="asterisk" unicode="*" horiz-adv-x="425" 
d="M361 633v-51h-100l53 -88l-46 -28l-54 90l-52 -90l-48 28l54 88h-103v51h103l-54 90l48 28l52 -90l54 90l46 -28l-53 -90h100z" />
    <glyph glyph-name="plus" unicode="+" horiz-adv-x="606" 
d="M265 341v214h76v-214h214v-76h-214v-214h-76v214h-214v76h214z" />
    <glyph glyph-name="comma" unicode="," horiz-adv-x="277" 
d="M41 -67l88 193h74l-88 -193h-74z" />
    <glyph glyph-name="hyphen" unicode="-" horiz-adv-x="332" 
d="M30 334h272v-67h-272v67z" />
    <glyph glyph-name="hyphen" unicode="&#xad;" horiz-adv-x="332" 
d="M30 334h272v-67h-272v67z" />
    <glyph glyph-name="period" unicode="." horiz-adv-x="277" 
d="M101 0v126h74v-126h-74z" />
    <glyph glyph-name="slash" unicode="/" horiz-adv-x="437" 
d="M40 -126l289 866h68l-291 -866h-66z" />
    <glyph glyph-name="zero" unicode="0" 
d="M30 265v210c0 13.333 0.5 26.166 1.5 38.499s3.33301 28.333 7 48s8.66699 37.667 15 54s15.833 33.333 28.5 51s27.334 32.5 44.001 44.5s38 22 64 30s55 12 87 12s61 -4 87 -12s47.333 -18 64 -30s31.334 -26.833 44.001 -44.5s22.167 -34.667 28.5 -51
s11.333 -34.333 15 -54s6 -35.667 7 -48s1.5 -25.166 1.5 -38.499v-210c0 -13.333 -0.5 -26.166 -1.5 -38.499s-3.33301 -28.333 -7 -48s-8.66699 -37.667 -15 -54s-15.833 -33.333 -28.5 -51s-27.334 -32.5 -44.001 -44.5s-38 -22 -64 -30s-55 -12 -87 -12s-61 4 -87 12
s-47.333 18 -64 30s-31.334 26.833 -44.001 44.5s-22.167 34.667 -28.5 51s-11.333 34.333 -15 54s-6 35.667 -7 48s-1.5 25.166 -1.5 38.499zM104 458v-176c0 -152 57.667 -228 173 -228s173 76 173 228v176c0 152 -57.667 228 -173 228s-173 -76 -173 -228z" />
    <glyph glyph-name="one" unicode="1" 
d="M330 0v652l-163 -234l-55 42l197 280h95v-740h-74z" />
    <glyph glyph-name="two" unicode="2" 
d="M34 0l0.00292969 66l285 275l18 17.5c10 9.66699 16.167 15.834 18.5 18.501s7.83301 8.5 16.5 17.5s14.334 15.5 17.001 19.5s7.16699 10.167 13.5 18.5s10.666 15.5 12.999 21.5s5.33301 13.167 9 21.5s6 16.666 7 24.999s1.5 16.833 1.5 25.5
c0 44 -14.5 81.667 -43.5 113s-68.5 47 -118.5 47c-52.667 0 -92.834 -18.333 -120.501 -55s-39.834 -79.667 -36.501 -129h-74c-3.33301 66 15.5 124.333 56.5 175s101.167 76 180.5 76c66.667 0 121.667 -20.333 165 -61s65 -95.667 65 -165
c0 -25.333 -2.83301 -48.5 -8.5 -69.5s-16.334 -42.167 -32.001 -63.5s-27.167 -35.833 -34.5 -43.5s-23.333 -23.167 -48 -46.5l-13 -13l-235 -224h367v-67h-469z" />
    <glyph glyph-name="three" unicode="3" 
d="M159 557h-73.9971c-2 51.333 13.667 96.833 47 136.5s80.666 59.5 141.999 59.5c56 0 100.667 -18 134 -54s50 -81 50 -135c0 -26.667 -7 -52.834 -21 -78.501s-34.667 -46.5 -62 -62.5c40.667 -13.333 72.667 -38.166 96 -74.499s35 -77.5 35 -123.5
c0 -59.333 -20.833 -113.833 -62.5 -163.5s-100.167 -74.5 -175.5 -74.5c-40 0 -75.333 7.33301 -106 22s-54.834 34.334 -72.501 59.001s-31 50.667 -40 78s-13.833 55.666 -14.5 84.999h74c0.666992 -52 15.834 -94.5 45.501 -127.5s67.5 -49.5 113.5 -49.5
s84.833 16.5 116.5 49.5s47.5 73.167 47.5 120.5c0 16 -2.16699 31.833 -6.5 47.5s-12.333 33 -24 52s-31.334 34.5 -59.001 46.5s-61.5 18 -101.5 18h-19v67h29c48.667 0 83 11.833 103 35.5s30 50.167 30 79.5c0 33.333 -10.167 61 -30.5 83s-47.5 33 -81.5 33
c-36.667 0 -65.334 -13 -86.001 -39s-29.667 -56 -27 -90z" />
    <glyph glyph-name="four" unicode="4" 
d="M386 0v135h-374v67l358 538h90v-538h67v-67h-67v-135h-74zM386 202v435l-287 -435h287z" />
    <glyph glyph-name="five" unicode="5" 
d="M66 375l67.0029 364.999h334v-67h-274l-37 -205c36 23.333 77.667 35 125 35c73.333 0 132.833 -24 178.5 -72s68.5 -109.667 68.5 -185c0 -73.333 -23.167 -134.833 -69.5 -184.5s-105.833 -74.5 -178.5 -74.5c-70 0 -128.833 23.167 -176.5 69.5
s-73.5 104.833 -77.5 175.5h74c1.33301 -52 19.166 -94.667 53.499 -128s75.166 -50 122.499 -50c49.333 0 91.333 17 126 51s52 80.333 52 139c0 54.667 -16 100.334 -48 137.001s-75 55 -129 55c-27.333 0 -54.833 -6.83301 -82.5 -20.5s-50.834 -34.167 -69.501 -61.5z
" />
    <glyph glyph-name="six" unicode="6" horiz-adv-x="553" 
d="M294 740l85.999 -0.000976562l-175 -261c26 15.333 55.333 23 88 23c62 0 116.667 -22.667 164 -68s71 -108.333 71 -189c0 -74 -23.5 -135.5 -70.5 -184.5s-108.167 -73.5 -183.5 -73.5s-135.666 24.333 -180.999 73s-68 110 -68 184c0 40 6.16699 74.333 18.5 103
s33.833 66.334 64.5 113.001zM274.999 434.999c-48.667 0 -90.168 -17.168 -124.501 -51.501s-51.5 -79.166 -51.5 -134.499c0 -59.333 17.333 -106.666 52 -141.999s76.667 -53 126 -53c52.667 0 95.334 18.167 128.001 54.5s49 81.166 49 134.499
c0 56 -16.333 102 -49 138s-76 54 -130 54z" />
    <glyph glyph-name="seven" unicode="7" 
d="M108 0l304 673h-348v67h426v-67l-302 -673h-80z" />
    <glyph glyph-name="eight" unicode="8" 
d="M167 413c-57.333 32 -86 81.998 -86 149.998c0 49.333 17.333 93.333 52 132s83.667 58 147 58c58 0 104.667 -18.167 140 -54.5s53 -83.166 53 -140.499c0 -12 -1.33301 -25 -4 -39s-11.167 -32 -25.5 -54s-33.833 -39.333 -58.5 -52
c41.333 -17.333 72.833 -44 94.5 -80s32.5 -74.333 32.5 -115c0 -65.333 -23.5 -120.166 -70.5 -164.499s-102.833 -66.5 -167.5 -66.5c-66.667 0 -122 22.5 -166 67.5s-66 99.167 -66 162.5c0 38 10.5 75.333 31.5 112s52.167 64.667 93.5 84zM275 374.998
c-44.667 0 -82.333 -15.667 -113 -47s-46 -69.666 -46 -114.999c0 -44.667 14.5 -82.334 43.5 -113.001s67.167 -46 114.5 -46c48 0 87.333 15.833 118 47.5s46 70.5 46 116.5c0 45.333 -15.833 82.833 -47.5 112.5s-70.167 44.5 -115.5 44.5zM280.001 685.998
c-35.333 0 -64.999 -10.833 -88.999 -32.5s-36 -50.5 -36 -86.5c0 -35.333 11.333 -65 34 -89s52.667 -36 90 -36c35.333 0 64.166 11.833 86.499 35.5s33.5 52.5 33.5 86.5c0 32.667 -10.5 61.167 -31.5 85.5s-50.167 36.5 -87.5 36.5z" />
    <glyph glyph-name="nine" unicode="9" horiz-adv-x="553" 
d="M259 0l-86.001 -0.00292969l175 260c-26 -15.333 -55.333 -23 -88 -23c-62 0 -116.667 22.833 -164 68.5s-71 108.834 -71 189.501c0 74.667 23.5 136.334 70.5 185.001s108.167 73 183.5 73c74.667 0 134.834 -24.5 180.501 -73.5s68.5 -110.5 68.5 -184.5
c0 -35.333 -6.5 -69.166 -19.5 -101.499s-34.167 -70.5 -63.5 -114.5zM277.999 303.997c48.667 0 90.168 17.3311 124.501 51.998s51.5 79.334 51.5 134.001c0 53.333 -16 99.333 -48 138s-75.333 58 -130 58c-52.667 0 -95.334 -18.167 -128.001 -54.5
s-49 -81.166 -49 -134.499c0 -55.333 16.5 -101.333 49.5 -138s76.167 -55 129.5 -55z" />
    <glyph glyph-name="colon" unicode=":" horiz-adv-x="277" 
d="M101 0v126h74v-126h-74zM101 384v126h74v-126h-74z" />
    <glyph glyph-name="semicolon" unicode=";" horiz-adv-x="277" 
d="M129 384v126h74v-126h-74zM41 -67l88 193h74l-88 -193h-74z" />
    <glyph glyph-name="less" unicode="&#x3c;" horiz-adv-x="606" 
d="M144 301l414 -191v-73l-509 232v64l509 232v-73z" />
    <glyph glyph-name="equal" unicode="=" horiz-adv-x="606" 
d="M555 436v-75h-504v75h504zM555 241v-75h-504v75h504z" />
    <glyph glyph-name="greater" unicode="&#x3e;" horiz-adv-x="606" 
d="M462 301l-414 191v73l509 -232v-64l-509 -232v73z" />
    <glyph glyph-name="question" unicode="?" horiz-adv-x="591" 
d="M255 0v126h74v-126h-74zM127 510h-70.999c-4.66699 71.333 16.333 129.666 63 174.999s104.667 68 174 68c38.667 0 73 -7 103 -21s53.333 -32.333 70 -55s29.167 -46.667 37.5 -72s12.5 -51 12.5 -77c0 -34.667 -7.16699 -63.5 -21.5 -86.5
s-38.166 -50.833 -71.499 -83.5c-18 -17.333 -30.833 -30.333 -38.5 -39s-16.834 -20.167 -27.501 -34.5s-18 -28.666 -22 -42.999s-6 -30.5 -6 -48.5h-74c0 22.667 2.66699 43.834 8 63.501s13.5 38 24.5 55s21.333 31 31 42s22.167 24.167 37.5 39.5
c36.667 35.333 59 59.333 67 72c12.667 20 19 43.667 19 71c0 45.333 -14.833 81.666 -44.5 108.999s-66.834 41 -111.501 41c-49.333 0 -89 -17.333 -119 -52s-43.333 -76 -40 -124z" />
    <glyph glyph-name="at" unicode="@" horiz-adv-x="867" 
d="M637 578l-63.0039 -319.001c-2.66699 -13.333 -4 -24.666 -4 -33.999c0 -20 12 -30 36 -30c39.333 0 74 22.833 104 68.5s45 98.834 45 159.501c0 83.333 -27.833 151.5 -83.5 204.5s-131.167 79.5 -226.5 79.5c-104.667 0 -186.5 -31.833 -245.5 -95.5
s-88.5 -143.167 -88.5 -238.5c0 -97.333 31.333 -178.333 94 -243s143.334 -97 242.001 -97c84 0 165 23.667 243 71l24 -39c-82.667 -52 -171.667 -78 -267 -78c-115.333 0 -208.666 35.333 -279.999 106s-107 164 -107 280c0 80 17.833 149.333 53.5 208
s82.334 102 140.001 130s122.5 42 194.5 42c111.333 0 198.833 -30.833 262.5 -92.5s95.5 -140.834 95.5 -237.501c0 -82.667 -22.833 -149 -68.5 -199s-92.834 -75 -141.501 -75c-20 0 -37.667 6 -53 18s-23.666 28.333 -24.999 49c-15.333 -22 -34.833 -38.667 -58.5 -50
s-47.167 -17 -70.5 -17c-48 0 -89.333 16 -124 48s-52 78 -52 138c0 73.333 19.333 135.5 58 186.5s93.334 76.5 164.001 76.5c63.333 0 106 -22.333 128 -67l10 47h64zM393.996 200.999c38.667 0 72.498 18.667 101.498 56s43.5 91 43.5 161
c0 42.667 -9.16699 74.667 -27.5 96s-42.166 32 -71.499 32c-47.333 0 -85.333 -20 -114 -60s-43 -90.333 -43 -151c0 -45.333 10.833 -79 32.5 -101s47.834 -33 78.501 -33z" />
    <glyph glyph-name="A" unicode="A" horiz-adv-x="740" 
d="M11 0l319 740h82l317 -740h-80l-107 248h-344l-107 -248h-80zM227 315h286l-142 339z" />
    <glyph glyph-name="B" unicode="B" horiz-adv-x="574" 
d="M74 0l0.000976562 740.001h185c163.333 0 245 -65 245 -195c0 -62 -29.667 -111.333 -89 -148c43.333 -12.667 75.666 -36.5 96.999 -71.5s32 -73.833 32 -116.5c0 -14.667 -1.33301 -29.5 -4 -44.5s-9.5 -32.833 -20.5 -53.5s-25.5 -38.834 -43.5 -54.501
s-44.167 -29 -78.5 -40s-74.5 -16.5 -120.5 -16.5h-203zM148.001 67.001h129c128 0 192 47 192 141c0 98.667 -64 148 -192 148h-129v-289zM148.001 423.001l111 -0.000976562c114 0 171 41.667 171 125c0 23.333 -4.5 43.333 -13.5 60s-19.167 29 -30.5 37
s-26 14.333 -44 19s-32.5 7.33398 -43.5 8.00098s-24.167 1 -39.5 1h-111v-250z" />
    <glyph glyph-name="C" unicode="C" horiz-adv-x="813" 
d="M767 551l-88.001 0.00195312c-58 90 -142 135 -252 135c-90.667 0 -165.167 -30.667 -223.5 -92s-87.5 -135.333 -87.5 -222c0 -90.667 30.5 -166.334 91.5 -227.001s135.833 -91 224.5 -91c48 0 94.5 11.667 139.5 35s81.833 58 110.5 104h88
c-34.667 -64.667 -81.667 -115.167 -141 -151.5s-125 -54.5 -197 -54.5c-110 0 -202.5 36.333 -277.5 109s-112.5 164.667 -112.5 276c0 109.333 37 200.166 111 272.499s165 108.5 273 108.5c77.333 0 145.833 -17.667 205.5 -53s104.834 -85 135.501 -149z" />
    <glyph glyph-name="D" unicode="D" horiz-adv-x="744" 
d="M74 0v740h203c66.667 0 125.667 -8.16699 177 -24.5s92.333 -37 123 -62s55.667 -54.5 75 -88.5s32.5 -66.667 39.5 -98s10.5 -63.333 10.5 -96c0 -46.667 -8 -91.334 -24 -134.001s-40.167 -82.167 -72.5 -118.5s-76.333 -65.166 -132 -86.499s-119.5 -32 -191.5 -32
h-208zM148 67l133.997 -0.00195312c58.667 0 110.834 8.83301 156.501 26.5s82 41.334 109 71.001s47.167 62 60.5 97s20 71.5 20 109.5c0 26 -3 51.833 -9 77.5s-17.167 52.334 -33.5 80.001s-37.166 52 -62.499 73s-59.166 38.167 -101.499 51.5s-90.5 20 -144.5 20h-129
v-606z" />
    <glyph glyph-name="E" unicode="E" horiz-adv-x="536" 
d="M74 0v740h406v-67h-332v-267h321v-67h-321v-272h332v-67h-406z" />
    <glyph glyph-name="F" unicode="F" horiz-adv-x="485" 
d="M74 0v740h375v-67h-301v-268h290v-67h-290v-338h-74z" />
    <glyph glyph-name="G" unicode="G" horiz-adv-x="872" 
d="M328 341l502.003 0.00195312c-10 -104.667 -50.833 -189.834 -122.5 -255.501s-160.167 -98.5 -265.5 -98.5c-61.333 0 -117.833 10.833 -169.5 32.5s-94 50.667 -127 87s-58.5 77.5 -76.5 123.5s-27 93.667 -27 143c0 105.333 36.833 195 110.5 269
s170.167 111 289.5 111c78 0 147.167 -17.833 207.5 -53.5s105.833 -87.5 136.5 -155.5h-88c-16.667 30.667 -37.5 56.5 -62.5 77.5s-50.667 35.667 -77 44s-48.333 13.833 -66 16.5s-34.5 4 -50.5 4c-55.333 0 -104.833 -10.167 -148.5 -30.5s-77.834 -46.5 -102.501 -78.5
s-43.334 -65.5 -56.001 -100.5s-19 -69.833 -19 -104.5c0 -51.333 12.667 -100.833 38 -148.5s63.666 -87.834 114.999 -120.501s110 -49 176 -49c65.333 0 126 19.333 182 58s94 92.667 114 162h-413v67z" />
    <glyph glyph-name="H" unicode="H" horiz-adv-x="683" 
d="M74 0v740h74v-326h387v326h74v-740h-74v347h-387v-347h-74z" />
    <glyph glyph-name="I" unicode="I" horiz-adv-x="226" 
d="M76 0v740h74v-740h-74z" />
    <glyph glyph-name="J" unicode="J" horiz-adv-x="482" 
d="M408 740l0.00195312 -517.998c0 -156.667 -63.667 -235 -191 -235c-64.667 0 -114.334 18.333 -149.001 55s-53 81 -55 133h74c2.66699 -33.333 14.667 -61.833 36 -85.5s52.666 -35.5 93.999 -35.5c22 0 40.667 4 56 12s27 17.333 35 28s14 24.667 18 42
s6.33301 31.666 7 42.999s1 25.666 1 42.999v518h74z" />
    <glyph glyph-name="K" unicode="K" horiz-adv-x="591" 
d="M74 0v740h74v-434l348 434h87l-292 -361l292 -379h-92l-247 320l-96 -118v-202h-74z" />
    <glyph glyph-name="L" unicode="L" horiz-adv-x="462" 
d="M74 0v740h74v-673h306v-67h-380z" />
    <glyph glyph-name="M" unicode="M" horiz-adv-x="919" 
d="M74 0v740h114l272 -630l272 630h114v-740h-74v657l-281 -657h-62l-281 657v-657h-74z" />
    <glyph glyph-name="N" unicode="N" horiz-adv-x="740" 
d="M74 0v740h100l418 -614v614h74v-740h-74l-444 650v-650h-74z" />
    <glyph glyph-name="O" unicode="O" horiz-adv-x="869" 
d="M434 753c111.333 0 204.5 -35.832 279.5 -107.499s112.5 -162.167 112.5 -271.5c0 -110.667 -37.667 -202.834 -113 -276.501s-168.333 -110.5 -279 -110.5c-110 0 -202.833 36 -278.5 108s-113.5 163 -113.5 273s37.667 201.667 113 275s168.333 110 279 110z
M435 54.001c90.667 0 166.167 30.3311 226.5 90.998s90.5 137 90.5 229c0 90.667 -30.333 165.334 -91 224.001s-136 88 -226 88c-90.667 0 -166.5 -30.167 -227.5 -90.5s-91.5 -136.166 -91.5 -227.499c0 -92 30.667 -167.333 92 -226s137 -88 227 -88z" />
    <glyph glyph-name="P" unicode="P" horiz-adv-x="592" 
d="M74 0l0.000976562 739.999h234c41.333 0 77.833 -5.16699 109.5 -15.5s56.5 -23.166 74.5 -38.499s32.5 -33.333 43.5 -54s18.333 -40 22 -58s5.5 -36.667 5.5 -56c0 -62 -20.833 -114.333 -62.5 -157s-105.834 -64 -192.501 -64h-160v-297h-74zM148.001 672.999v-309
h161c61.333 0 106.666 14.833 135.999 44.5s44 66.167 44 109.5c0 44 -14.667 80.833 -44 110.5s-74.666 44.5 -135.999 44.5h-161z" />
    <glyph glyph-name="Q" unicode="Q" horiz-adv-x="871" 
d="M659 53c-64.667 -44 -139.335 -66 -224.002 -66c-110 0 -203 36 -279 108s-114 163 -114 273s37.833 201.667 113.5 275s168.834 110 279.501 110s203.834 -35.833 279.501 -107.5s113.5 -162.167 113.5 -271.5c0 -108.667 -38 -201 -114 -277
c30 -30 64.667 -44.333 104 -43v-67c-61.333 -3.33301 -114.333 18.667 -159 66zM151.999 217c27.333 -50.667 65.668 -90.5 115.001 -119.5s105.666 -43.5 168.999 -43.5c67.333 0 124.333 15.333 171 46c-94 92.667 -202 139 -324 139c-46 0 -89.667 -7.33301 -131 -22z
M663.001 145c60.667 63.333 91.002 139.666 91.002 228.999c0 90.667 -30.5 165.334 -91.5 224.001s-136.5 88 -226.5 88c-91.333 0 -167.5 -30 -228.5 -90s-91.5 -136 -91.5 -228c0 -32 3.66699 -61.667 11 -89c52.667 18 106.667 27 162 27
c71.333 0 139.166 -14.5 203.499 -43.5s121.166 -68.167 170.499 -117.5z" />
    <glyph glyph-name="R" unicode="R" horiz-adv-x="607" 
d="M74 0l0.000976562 739.999h207c52.667 0 98.334 -6.66699 137.001 -20s67.667 -29 87 -47s34.666 -39.5 45.999 -64.5s18.166 -45.5 20.499 -61.5s3.5 -32.333 3.5 -49c0 -60.667 -20 -111.667 -60 -153s-92.667 -64.333 -158 -69l208 -276h-92l-251 335h59
c9.33301 0 18 0.166992 26 0.5s20 1.66602 36 3.99902s30.333 5.5 43 9.5s26.5 10.167 41.5 18.5s27.5 18.333 37.5 30s18.5 26.834 25.5 45.501s10.5 39.334 10.5 62.001c0 21.333 -3.5 41.333 -10.5 60s-18.167 36.5 -33.5 53.5s-38 30.333 -68 40s-66 14.5 -108 14.5
h-133v-673h-74z" />
    <glyph glyph-name="S" unicode="S" horiz-adv-x="498" 
d="M22 207l73.9971 0.000976562c0.666992 -9.33301 1.83398 -18.666 3.50098 -27.999s5.66699 -22.166 12 -38.499s14.5 -30.333 24.5 -42s24.833 -22 44.5 -31s42.5 -13.5 68.5 -13.5c47.333 0 84.666 14.667 111.999 44s41 64.666 41 105.999
c0 64.667 -33 109.334 -99 134.001c-12 4.66699 -32.667 11.167 -62 19.5s-53.166 16.166 -71.499 23.499s-38.166 18 -59.499 32s-37.5 32.667 -48.5 56s-16.5 51 -16.5 83c0 22 4 44.167 12 66.5s19.833 43.833 35.5 64.5s37.667 37.5 66 50.5s60.5 19.5 96.5 19.5
c64 0 113.5 -19.833 148.5 -59.5s53.167 -86.5 54.5 -140.5h-74c-0.666992 14 -3 27.667 -7 41s-10.667 27.5 -20 42.5s-23.666 27 -42.999 36s-42 13.5 -68 13.5c-42 0 -73.667 -13.333 -95 -40s-32 -58.334 -32 -95.001c0 -37.333 11.333 -64.666 34 -81.999
s60 -33.333 112 -48l37 -11c8.66699 -2.66699 21.5 -7.33398 38.5 -14.001s30.667 -13.334 41 -20.001s22.166 -15.667 35.499 -27s23.833 -23.5 31.5 -36.5s14.167 -29 19.5 -48s8 -39.5 8 -61.5c0 -56 -19.667 -106 -59 -150s-94.666 -66 -165.999 -66
c-65.333 0 -119.833 20.667 -163.5 62s-65.5 94 -65.5 158z" />
    <glyph glyph-name="T" unicode="T" horiz-adv-x="426" 
d="M176 0v673h-169v67h412v-67h-169v-673h-74z" />
    <glyph glyph-name="U" unicode="U" horiz-adv-x="655" 
d="M74 740h74v-450c0 -157.333 60 -236 180 -236s180 78.667 180 236v450h74v-450c0 -103.333 -22.833 -179.666 -68.5 -228.999s-107.5 -74 -185.5 -74s-139.833 24.667 -185.5 74s-68.5 125.666 -68.5 228.999v450z" />
    <glyph glyph-name="V" unicode="V" horiz-adv-x="702" 
d="M315 0l-305 740h81l259 -648l261 648h81l-307 -740h-70z" />
    <glyph glyph-name="W" unicode="W" horiz-adv-x="960" 
d="M220 0l-210 740h77l181 -645l177 645h70l177 -645l181 645h77l-210 -740h-97l-163 606l-163 -606h-97z" />
    <glyph glyph-name="X" unicode="X" horiz-adv-x="609" 
d="M8 0l251 378l-236 362h87l195 -297l194 297h87l-239 -362l254 -378h-87l-209 316l-210 -316h-87z" />
    <glyph glyph-name="Y" unicode="Y" horiz-adv-x="592" 
d="M259 0v248l-253 492h81l209 -415l209 415h81l-253 -492v-248h-74z" />
    <glyph glyph-name="Z" unicode="Z" horiz-adv-x="480" 
d="M17 0v67l362 606h-351v67h435v-67l-362 -606h373v-67h-457z" />
    <glyph glyph-name="bracketleft" unicode="[" horiz-adv-x="351" 
d="M313 -50l0.000976562 -76c-22 5.33301 -43.333 13.833 -64 25.5s-42 28 -64 49s-39.667 49.833 -53 86.5s-20 78.667 -20 126v289c0 16 0.666992 31.5 2 46.5s5.66602 36 12.999 63s17.5 50.833 30.5 71.5s33 41.5 60 62.5s58.833 36.5 95.5 46.5v-76
c-86 -32.667 -129 -104 -129 -214v-277c0 -24.667 1.33301 -46.167 4 -64.5s8 -38.5 16 -60.5s21.167 -41.333 39.5 -58s41.5 -30 69.5 -40z" />
    <glyph glyph-name="backslash" unicode="\" horiz-adv-x="605" 
d="M394 0l-310 740h71l309 -740h-70z" />
    <glyph glyph-name="bracketright" unicode="]" horiz-adv-x="351" 
d="M38 -126l0.000976562 76c28 10 51.167 23.333 69.5 40s31.5 36 39.5 58s13.333 42.167 16 60.5s4 39.833 4 64.5v277c0 110 -43 181.333 -129 214v76c36.667 -10 68.5 -25.5 95.5 -46.5s47 -41.833 60 -62.5s23.167 -44.5 30.5 -71.5s11.666 -48 12.999 -63
s2 -30.5 2 -46.5v-289c0 -47.333 -6.66699 -89.333 -20 -126s-31 -65.5 -53 -86.5s-43.333 -37.333 -64 -49s-42 -20.167 -64 -25.5z" />
    <glyph glyph-name="asciicircum" unicode="^" horiz-adv-x="604" 
d="M302 664l-220 -484h-64l255 560h58l255 -560h-64z" />
    <glyph glyph-name="underscore" unicode="_" horiz-adv-x="500" 
d="M500 -125h-500v58h500v-58z" />
    <glyph glyph-name="grave" unicode="`" horiz-adv-x="378" 
d="M106 779l198 -108l-33 -58l-197 106z" />
    <glyph glyph-name="a" unicode="a" horiz-adv-x="683" 
d="M620 547v-547h-70v102h-2c-50.667 -76.667 -121.667 -115 -213 -115c-82.667 0 -152.167 27.333 -208.5 82s-84.5 124 -84.5 208c0 33.333 6.16699 66.333 18.5 99s30 63 53 91s53.667 50.5 92 67.5s80.833 25.5 127.5 25.5c96 0 167.667 -36 215 -108h2v95h70zM333 493
c-60 0 -111.166 -21.332 -153.499 -63.999s-63.5 -95.334 -63.5 -158.001c0 -61.333 21.667 -112.833 65 -154.5s94.666 -62.5 153.999 -62.5c60 0 110.833 21 152.5 63s62.5 93 62.5 153c0 62.667 -20.833 115.5 -62.5 158.5s-93.167 64.5 -154.5 64.5z" />
    <glyph glyph-name="b" unicode="b" horiz-adv-x="682" 
d="M63 740l74.001 -0.00195312v-287h2c46.667 71.333 116.667 107 210 107c48 0 91.167 -8.66699 129.5 -26s69 -40.166 92 -68.499s40.333 -59.166 52 -92.499s17.5 -67.333 17.5 -102c0 -80.667 -28 -148.167 -84 -202.5s-125.667 -81.5 -209 -81.5
c-92.667 0 -163.334 35.667 -212.001 107h-2v-94h-70v740zM349.001 492.998c-61.333 0 -112.668 -21.499 -154.001 -64.499s-62 -95.833 -62 -158.5c0 -60 20.833 -111 62.5 -153s92.167 -63 151.5 -63c60.667 0 112.334 20.667 155.001 62s64 93 64 155
c0 63.333 -20.833 116.166 -62.5 158.499s-93.167 63.5 -154.5 63.5z" />
    <glyph glyph-name="c" unicode="c" horiz-adv-x="647" 
d="M518 160h82c-22 -48.667 -54.833 -89.667 -98.5 -123s-99.5 -50 -167.5 -50c-88.667 0 -159.5 28.667 -212.5 86s-79.5 124.333 -79.5 201c0 45.333 10.667 89.333 32 132s54.833 79 100.5 109s98.834 45 159.501 45c62.667 0 117.334 -16 164.001 -48
s81 -75.667 103 -131h-83c-12.667 25.333 -28.334 46.333 -47.001 63s-37.834 28 -57.501 34s-35.167 10 -46.5 12s-22.333 3 -33 3c-62.667 0 -114.667 -21 -156 -63s-62 -93.667 -62 -155c0 -62 21.333 -114.333 64 -157s94 -64 154 -64c38 0 73.333 9.16699 106 27.5
s58.667 44.5 78 78.5z" />
    <glyph glyph-name="d" unicode="d" horiz-adv-x="685" 
d="M622 740l-0.000976562 -740.001h-70v100h-2c-51.333 -75.333 -122.666 -113 -213.999 -113c-82 0 -151.167 27.5 -207.5 82.5s-84.5 124.167 -84.5 207.5c0 32.667 6.16699 65.334 18.5 98.001s30 63 53 91s53.5 50.667 91.5 68s80.333 26 127 26
c94 0 164.667 -36 212 -108h2v288h74zM333.999 492.999c-60 0 -111.001 -21.333 -153.001 -64s-63 -95.334 -63 -158.001c0 -62 21.5 -113.667 64.5 -155s94.167 -62 153.5 -62c60.667 0 111.834 20.833 153.501 62.5s62.5 92.834 62.5 153.501
c0 63.333 -20.667 116.333 -62 159s-93.333 64 -156 64z" />
    <glyph glyph-name="e" unicode="e" horiz-adv-x="650" 
d="M608 247h-489.002c4.66699 -55.333 26.334 -101.333 65.001 -138s86.334 -55 143.001 -55c42.667 0 80.834 11.167 114.501 33.5s59.167 52.5 76.5 90.5h77c-22 -59.333 -56.667 -106 -104 -140s-102 -51 -164 -51c-80.667 0 -148.334 27.167 -203.001 81.5
s-82 122.5 -82 204.5c0 34.667 6.33301 68.667 19 102s30.5 64 53.5 92s53 50.5 90 67.5s77.833 25.5 122.5 25.5c40 0 76.167 -6.33301 108.5 -19s59 -29.5 80 -50.5s38.667 -45.167 53 -72.5s24.5 -55.333 30.5 -84s9 -57.667 9 -87zM118.998 314h409.001
c-10 54.667 -33.833 98.167 -71.5 130.5s-80.834 48.5 -129.501 48.5c-52 0 -97.333 -16.833 -136 -50.5s-62.667 -76.5 -72 -128.5z" />
    <glyph glyph-name="f" unicode="f" horiz-adv-x="314" 
d="M98 0l-0.00195312 479.999h-85v67h85v11c0 54.667 17.333 98.667 52 132s82.334 50 143.001 50h15v-67h-15c-7.33301 0 -14.5 -0.333008 -21.5 -1s-17 -3 -30 -7s-24.167 -9.83301 -33.5 -17.5s-17.666 -19.167 -24.999 -34.5s-11 -33.666 -11 -54.999v-11h136v-67h-136
v-480h-74z" />
    <glyph glyph-name="g" unicode="g" horiz-adv-x="673" 
d="M610 547l0.000976562 -469c0 -50.667 -7.5 -95.334 -22.5 -134.001s-35.5 -69.167 -61.5 -91.5s-55 -39 -87 -50s-66.333 -16.5 -103 -16.5c-68 0 -126.5 18.167 -175.5 54.5s-82.833 85.166 -101.5 146.499h74c17.333 -42.667 45 -75.667 83 -99s77.667 -35 119 -35
c36 0 67.333 6.16699 94 18.5s46.667 26.5 60 42.5s23.833 35.667 31.5 59s12.167 42.5 13.5 57.5s2 30.833 2 47.5v30h-2c-18.667 -38 -45.667 -67.667 -81 -89s-77.333 -32 -126 -32c-80.667 0 -148.334 27.833 -203.001 83.5s-82 122.834 -82 201.501
c0 80.667 26.833 148.834 80.5 204.501s120.5 83.5 200.5 83.5c49.333 0 92.5 -10.333 129.5 -31s65.5 -50 85.5 -88h2v106h70zM324.001 493c-60 0 -109.667 -20.833 -149 -62.5s-59 -93.167 -59 -154.5s20 -113.666 60 -156.999s90.667 -65 152 -65
c60.667 0 111.167 21.167 151.5 63.5s60.5 94.166 60.5 155.499c0 62.667 -21 115 -63 157s-93 63 -153 63z" />
    <glyph glyph-name="h" unicode="h" horiz-adv-x="610" 
d="M63 0l-0.000976562 740.002h74v-272c42 61.333 101 92 177 92c68 0 124.833 -22.5 170.5 -67.5s68.5 -113.167 68.5 -204.5v-288h-74v288c0 13.333 -0.5 25.833 -1.5 37.5s-4.66699 28.667 -11 51s-15 41.166 -26 56.499s-28.333 29.166 -52 41.499
s-51.5 18.5 -83.5 18.5c-20.667 0 -40.167 -3 -58.5 -9s-36.166 -15.833 -53.499 -29.5s-31 -33.667 -41 -60s-15 -57.833 -15 -94.5v-300h-74z" />
    <glyph glyph-name="i" unicode="i" horiz-adv-x="200" 
d="M63 0v547h74v-547h-74zM63 614v126h74v-126h-74z" />
    <glyph glyph-name="j" unicode="j" horiz-adv-x="203" 
d="M140 547l0.00195312 -505c0 -55.333 -4.66699 -95.333 -14 -120c-13.333 -34.667 -35.833 -62.334 -67.5 -83.001s-66.167 -31 -103.5 -31v71c26 0.666992 47.167 6.33398 63.5 17.001s27.666 26 33.999 46s10.166 36.5 11.499 49.5s2 29.833 2 50.5v505h74zM66.002 614
v126h74v-126h-74z" />
    <glyph glyph-name="k" unicode="k" horiz-adv-x="502" 
d="M63 0v740h74v-534l258 341h88l-212 -274l226 -273h-95l-178 216l-87 -112v-104h-74z" />
    <glyph glyph-name="l" unicode="l" horiz-adv-x="200" 
d="M63 0v740h74v-740h-74z" />
    <glyph glyph-name="m" unicode="m" horiz-adv-x="938" 
d="M63 0l-0.00488281 546.999h70v-71h2c16 28 37.333 49 64 63s55.334 21 86.001 21c50 0 90 -10.833 120 -32.5s52 -45.834 66 -72.501c18.667 33.333 44.667 59.333 78 78s69 28 107 28c24 0 47.833 -3.83301 71.5 -11.5s47.167 -20.167 70.5 -37.5
s42.333 -43.166 57 -77.499s22 -75.166 22 -122.499v-312h-74v313c0 35.333 -5 65.666 -15 90.999s-23.333 44 -40 56s-32.834 20.5 -48.501 25.5s-31.5 7.5 -47.5 7.5c-46 0 -83 -16.333 -111 -49c-11.333 -12.667 -19.666 -28 -24.999 -46s-8.16602 -31.667 -8.49902 -41
s-0.5 -24 -0.5 -44v-313h-74v313c0 54.667 -12.5 98.334 -37.5 131.001s-61.833 49 -110.5 49c-28 0 -52.167 -5.83301 -72.5 -17.5s-35.166 -24.5 -44.499 -38.5s-16.666 -31.333 -21.999 -52s-8.16602 -35.167 -8.49902 -43.5s-0.5 -17.833 -0.5 -28.5v-313h-74z" />
    <glyph glyph-name="n" unicode="n" horiz-adv-x="610" 
d="M63 0l-0.000976562 547.002h70v-79h2c41.333 61.333 101 92 179 92c68 0 124.833 -22.5 170.5 -67.5s68.5 -113.167 68.5 -204.5v-288h-74v288c0 13.333 -0.5 25.833 -1.5 37.5s-4.66699 28.667 -11 51s-15 41.166 -26 56.499s-28.333 29.166 -52 41.499
s-51.5 18.5 -83.5 18.5c-20.667 0 -40.167 -3 -58.5 -9s-36.166 -15.833 -53.499 -29.5s-31 -33.667 -41 -60s-15 -57.833 -15 -94.5v-300h-74z" />
    <glyph glyph-name="o" unicode="o" horiz-adv-x="655" 
d="M328 560c81.333 0 149.333 -27.5 204 -82.5s82 -123.167 82 -204.5s-27.5 -149.333 -82.5 -204s-122.833 -82 -203.5 -82s-148.5 27.333 -203.5 82s-82.5 122.667 -82.5 204s27.333 149.5 82 204.5s122.667 82.5 204 82.5zM328 493c-61.333 0 -112 -21 -152 -63
s-60 -94.333 -60 -157s20 -114.834 60 -156.501s90.667 -62.5 152 -62.5s112 20.833 152 62.5s60 93.834 60 156.501s-20 115 -60 157s-90.667 63 -152 63z" />
    <glyph glyph-name="p" unicode="p" horiz-adv-x="682" 
d="M63 -192v739h70v-94h2c51.333 71.333 122.666 107 213.999 107c90 0 161 -29.167 213 -87.5s78 -125.5 78 -201.5c0 -81.333 -27.833 -149 -83.5 -203s-125.5 -81 -209.5 -81c-93.333 0 -162.666 38.333 -207.999 115h-2v-294h-74zM349 493
c-62.667 0 -114.334 -21.501 -155.001 -64.501s-61 -95.833 -61 -158.5c0 -61.333 20.167 -112.666 60.5 -153.999s91.5 -62 153.5 -62c60.667 0 112.334 21 155.001 63s64 93.667 64 155c0 62 -21 114.333 -63 157s-93.333 64 -154 64z" />
    <glyph glyph-name="q" unicode="q" horiz-adv-x="682" 
d="M619 547l0.00195312 -739h-74v294h-2c-48 -76.667 -117.333 -115 -208 -115c-83.333 0 -153 27.333 -209 82s-84 122 -84 202c0 47.333 10.5 92.5 31.5 135.5s54.167 79.333 99.5 109s98.666 44.5 159.999 44.5c95.333 0 166.666 -35.667 213.999 -107h2v94h70z
M333.002 493c-60 0 -111.167 -21.333 -153.5 -64s-63.5 -95.334 -63.5 -158.001c0 -62 21.5 -113.667 64.5 -155s94.5 -62 154.5 -62c60.667 0 111.5 20.833 152.5 62.5s61.5 92.834 61.5 153.501c0 62.667 -20.5 115.5 -61.5 158.5s-92.5 64.5 -154.5 64.5z" />
    <glyph glyph-name="r" unicode="r" horiz-adv-x="301" 
d="M63 0l0.000976562 547.001h70v-79h2c14.667 29.333 36.167 52.166 64.5 68.499s59.166 23.833 92.499 22.5v-74c-40.667 -2 -76.667 -16.667 -108 -44s-47 -66.333 -47 -117v-324h-74z" />
    <glyph glyph-name="s" unicode="s" horiz-adv-x="388" 
d="M22 161l74.001 0.00292969c-2.66699 -29.333 5.16602 -54.5 23.499 -75.5s43.5 -31.5 75.5 -31.5c30 0 53.5 9.33301 70.5 28s25.5 41 25.5 67c0 16 -2.66699 29.833 -8 41.5s-14.166 21.5 -26.499 29.5s-23 14 -32 18s-22.167 9 -39.5 15c-20 6.66699 -36 12.667 -48 18
s-26.5 13.833 -43.5 25.5s-29.833 26.667 -38.5 45s-13 39.833 -13 64.5c0 44 14.333 80.667 43 110s67 44 115 44c44.667 0 81.167 -14.167 109.5 -42.5s42.166 -63.833 41.499 -106.5h-74c0.666992 24 -6.5 43.667 -21.5 59s-34.167 23 -57.5 23
c-25.333 0 -45.333 -7.66699 -60 -23s-22 -34.666 -22 -57.999c0 -14.667 2.83301 -27.667 8.5 -39s14.5 -20.833 26.5 -28.5s23 -13.5 33 -17.5s23 -8.66699 39 -14c21.333 -6.66699 38.333 -12.834 51 -18.501s27 -14.334 43 -26.001s28 -26.334 36 -44.001
s12 -38.834 12 -63.501c0 -51.333 -15.667 -93.166 -47 -125.499s-74.333 -48.5 -129 -48.5c-54 0 -95.333 16.667 -124 50s-43 74.666 -43 123.999z" />
    <glyph glyph-name="t" unicode="t" horiz-adv-x="339" 
d="M126 0v480h-114v67h114v193h74v-193h127v-67h-127v-480h-74z" />
    <glyph glyph-name="u" unicode="u" horiz-adv-x="608" 
d="M545 547v-547h-70v79h-2c-41.333 -61.333 -101 -92 -179 -92c-69.333 0 -126.5 22.333 -171.5 67s-67.5 113 -67.5 205v288h74v-288c0 -70.667 16.833 -122.5 50.5 -155.5s74.834 -49.5 123.501 -49.5c20.667 0 40.167 3 58.5 9s36.166 15.833 53.499 29.5
s31 33.667 41 60s15 57.833 15 94.5v300h74z" />
    <glyph glyph-name="v" unicode="v" 
d="M238 0l-233 547h80l192 -453l192 453h80l-234 -547h-77z" />
    <glyph glyph-name="w" unicode="w" horiz-adv-x="831" 
d="M213 0l-208 547h78l173 -458l128 391h61l127 -391l176 458h78l-209 -547h-85l-118 363l-116 -363h-85z" />
    <glyph glyph-name="x" unicode="x" horiz-adv-x="480" 
d="M8 0l187 278l-187 269h87l145 -211l145 211h87l-188 -269l188 -278h-87l-145 219l-145 -219h-87z" />
    <glyph glyph-name="y" unicode="y" horiz-adv-x="536" 
d="M450 547h79l-316 -739h-79l91 217l-215 522h88l172 -426z" />
    <glyph glyph-name="z" unicode="z" horiz-adv-x="425" 
d="M10 0v67l298 413h-288v67h376v-67l-298 -413h317v-67h-405z" />
    <glyph glyph-name="braceleft" unicode="{" horiz-adv-x="351" 
d="M37 277v59.998c8 0.666992 15.667 2.16699 23 4.5s16 7 26 14s18 18.167 24 33.5s9 34.333 9 57v160c0 89.333 40.333 134 121 134h31v-60h-10c-14 0 -25.833 -2.16699 -35.5 -6.5s-16.834 -9.33301 -21.501 -15s-8.16699 -13.334 -10.5 -23.001
s-3.66602 -17.167 -3.99902 -22.5s-0.5 -12.666 -0.5 -21.999v-156c0 -77.333 -30 -119.666 -90 -126.999v-2c60 -7.33301 90 -49.666 90 -126.999v-156c0 -9.33301 0.166992 -16.666 0.5 -21.999s1.66602 -12.833 3.99902 -22.5s5.83301 -17.334 10.5 -23.001
s11.834 -10.667 21.501 -15s21.5 -6.5 35.5 -6.5h10v-60h-31c-80.667 0 -121 44.667 -121 134v160c0 22.667 -3 41.667 -9 57s-14 26.5 -24 33.5s-18.667 11.667 -26 14s-15 3.83301 -23 4.5z" />
    <glyph glyph-name="bar" unicode="|" horiz-adv-x="672" 
d="M304 0v740h64v-740h-64z" />
    <glyph glyph-name="braceright" unicode="}" horiz-adv-x="351" 
d="M314 337v-59.998c-8 -0.666992 -15.667 -2.16699 -23 -4.5s-16 -7 -26 -14s-18 -18.167 -24 -33.5s-9 -34.333 -9 -57v-160c0 -89.333 -40.333 -134 -121 -134h-31v60h10c14 0 25.833 2.16699 35.5 6.5s16.834 9.33301 21.501 15s8.16699 13.334 10.5 23.001
s3.66602 17.167 3.99902 22.5s0.5 12.666 0.5 21.999v156c0 77.333 30 119.666 90 126.999v2c-60 7.33301 -90 49.666 -90 126.999v156c0 9.33301 -0.166992 16.666 -0.5 21.999s-1.66602 12.833 -3.99902 22.5s-5.83301 17.334 -10.5 23.001s-11.834 10.667 -21.501 15
s-21.5 6.5 -35.5 6.5h-10v60h31c80.667 0 121 -44.667 121 -134v-160c0 -22.667 3 -41.667 9 -57s14 -26.5 24 -33.5s18.667 -11.667 26 -14s15 -3.83301 23 -4.5z" />
    <glyph glyph-name="asciitilde" unicode="~" horiz-adv-x="606" 
d="M513 391l41.999 -46.999c-18 -36 -39.5 -63.5 -64.5 -82.5s-50.833 -28.5 -77.5 -28.5c-12 0 -25.167 2 -39.5 6s-26.833 8.33301 -37.5 13l-54 24c-38.667 17.333 -68 26 -88 26c-24 0 -44.667 -9.33301 -62 -28s-30.666 -39.334 -39.999 -62.001l-41 48
c18 38 39.5 67.167 64.5 87.5s51.167 30.5 78.5 30.5c22.667 0 50 -6.66699 82 -20c6.66699 -2.66699 21 -9.16699 43 -19.5s40.333 -18 55 -23s28 -7.5 40 -7.5c38.667 0 71.667 27.667 99 83z" />
    <glyph glyph-name="currency" unicode="&#xa4;" 
d="M31 110l42.999 42.001c-32 44 -48 93.333 -48 148c0 58 16 108.333 48 151l-43 43l52 53l44 -43c44 32.667 95.333 49 154 49c52.667 0 101.334 -16.333 146.001 -49l44 43l52 -53l-43 -43c32 -43.333 48 -95.333 48 -156c0 -50.667 -16 -98.334 -48 -143.001l43 -42
l-52 -53l-44 43c-44.667 -33.333 -96.334 -50 -155.001 -50c-51.333 0 -99.666 16.667 -144.999 50l-44 -43zM462.999 303.001c0 50 -17.666 92.8311 -52.999 128.498s-78.333 53.834 -129 54.501c-54 0.666992 -99.333 -17.166 -136 -53.499s-54.667 -80.5 -54 -132.5
c0.666992 -50.667 18.667 -94.167 54 -130.5s78.666 -54.5 129.999 -54.5s95.5 18.333 132.5 55s55.5 81 55.5 133z" />
    <glyph glyph-name="brokenbar" unicode="&#xa6;" horiz-adv-x="672" 
d="M304 0v296h64v-296h-64zM304 444v296h64v-296h-64z" />
    <glyph glyph-name="section" unicode="&#xa7;" horiz-adv-x="615" 
d="M483 608l-70 0.00292969c-4 24.667 -15.667 44 -35 58s-43 20.667 -71 20c-33.333 -0.666992 -58.333 -10.667 -75 -30s-25 -42 -25 -68c0 -20.667 5.83301 -37.5 17.5 -50.5s29.167 -25.5 52.5 -37.5l126 -63c20 -10 36.167 -18.833 48.5 -26.5
s25.333 -17.334 39 -29.001s23.667 -24.834 30 -39.501s9.5 -31.334 9.5 -50.001c0 -25.333 -7.33301 -51.166 -22 -77.499s-34.334 -48.833 -59.001 -67.5c36.667 -25.333 55 -61.333 55 -108c0 -47.333 -17.333 -88.833 -52 -124.5s-82 -53.5 -142 -53.5
c-59.333 0 -108 19.5 -146 58.5s-57.333 87.5 -58 145.5h70c0 -40.667 12.333 -73.5 37 -98.5s57 -37.833 97 -38.5c42 -0.666992 72.5 10.5 91.5 33.5s28.5 48.167 28.5 75.5c0 17.333 -5.5 33 -16.5 47s-22.167 24.5 -33.5 31.5s-25 14.167 -41 21.5
c-3.33301 1.33301 -5.66602 2.33301 -6.99902 3l-167 83c-51.333 25.333 -77 63.666 -77 114.999c0 62 29.333 113 88 153c-28.667 26.667 -43 59.667 -43 99c0 41.333 14 78.833 42 112.5s71.333 50.5 130 50.5c51.333 0 93 -12.667 125 -38s49.667 -61 53 -107z
M224 270.003l177 -88.001c18 10.667 32.167 25.167 42.5 43.5s15.5 35.833 15.5 52.5s-4.33301 31.5 -13 44.5s-17.667 22.5 -27 28.5s-21.333 12.667 -36 20l-165 82c-18.667 -12 -33.167 -27.667 -43.5 -47s-15.5 -38.666 -15.5 -57.999c0 -31.333 21.667 -57.333 65 -78z
" />
    <glyph glyph-name="copyright" unicode="&#xa9;" horiz-adv-x="747" 
d="M375 -13c-105.333 0 -195.5 37.5 -270.5 112.5s-112.5 165.167 -112.5 270.5s37.5 195.5 112.5 270.5s165.167 112.5 270.5 112.5s195.166 -37.5 269.499 -112.5s111.5 -165.167 111.5 -270.5s-37.167 -195.5 -111.5 -270.5s-164.166 -112.5 -269.499 -112.5zM375 33
c92.667 0 171.667 32.833 237 98.5s98 145.167 98 238.5s-32.667 172.833 -98 238.5s-144.333 98.5 -237 98.5c-93.333 0 -172.833 -32.833 -238.5 -98.5s-98.5 -145.167 -98.5 -238.5s32.833 -172.833 98.5 -238.5s145.167 -98.5 238.5 -98.5zM571 475
l-54.999 -0.000976562c-30 47.333 -77 71 -141 71c-56.667 0 -99.5 -17.667 -128.5 -53s-43.5 -75.333 -43.5 -120c0 -51.333 16.333 -93.333 49 -126s74.667 -49 126 -49c11.333 0 23.5 1.16699 36.5 3.5s30.167 9.33301 51.5 21s38.666 27.5 51.999 47.5h55
c-14.667 -26 -31.834 -47.667 -51.501 -65s-39.5 -29.5 -59.5 -36.5s-36.167 -11.5 -48.5 -13.5s-24.166 -3 -35.499 -3c-66 0 -120 20.167 -162 60.5s-63 93.833 -63 160.5c0 63.333 21.167 115.666 63.5 156.999s95.166 62 158.499 62
c32.667 0 61.834 -4.83301 87.501 -14.5s46 -22.167 61 -37.5s25.667 -27.666 32 -36.999s11.5 -18.666 15.5 -27.999z" />
    <glyph glyph-name="guillemotleft" unicode="&#xab;" horiz-adv-x="426" 
d="M117 301l94 -168l-58 -32l-113 200l114 200l58 -32zM291 301l94 -168l-58 -32l-113 200l114 200l58 -32z" />
    <glyph glyph-name="logicalnot" unicode="&#xac;" horiz-adv-x="606" 
d="M479 166v194h-428v76h504v-270h-76z" />
    <glyph glyph-name="registered" unicode="&#xae;" horiz-adv-x="747" 
d="M375 -13c-105.333 0 -195.5 37.5 -270.5 112.5s-112.5 165.167 -112.5 270.5s37.5 195.5 112.5 270.5s165.167 112.5 270.5 112.5s195.166 -37.5 269.499 -112.5s111.5 -165.167 111.5 -270.5s-37.167 -195.5 -111.5 -270.5s-164.166 -112.5 -269.499 -112.5zM375 33
c92.667 0 171.667 32.833 237 98.5s98 145.167 98 238.5s-32.667 172.833 -98 238.5s-144.333 98.5 -237 98.5c-93.333 0 -172.833 -32.833 -238.5 -98.5s-98.5 -145.167 -98.5 -238.5s32.833 -172.833 98.5 -238.5s145.167 -98.5 238.5 -98.5zM243 156v427.003h133
c33.333 0 62 -4.5 86 -13.5s41.667 -20.833 53 -35.5s19.333 -29.334 24 -44.001s7 -30 7 -46c0 -34.667 -12.167 -64.334 -36.5 -89.001s-54.833 -37.334 -91.5 -38.001l122 -161h-60l-150 201h39c84.667 0 127 29.667 127 89c0 60.667 -42.333 91 -127 91h-76v-381h-50z
" />
    <glyph glyph-name="degree" unicode="&#xb0;" horiz-adv-x="400" 
d="M350 590c0 -41.333 -14.667 -76.666 -44 -105.999s-64.666 -44 -105.999 -44s-76.666 14.667 -105.999 44s-44 64.666 -44 105.999s14.667 76.666 44 105.999s64.666 44 105.999 44s76.666 -14.667 105.999 -44s44 -64.666 44 -105.999zM310 590
c0 30 -10.832 55.833 -32.499 77.5s-47.834 32.5 -78.501 32.5s-56.5 -10.667 -77.5 -32s-31.5 -47.333 -31.5 -78s10.667 -56.667 32 -78s47.333 -32 78 -32c30 0 55.833 10.667 77.5 32s32.5 47.333 32.5 78z" />
    <glyph glyph-name="plusminus" unicode="&#xb1;" horiz-adv-x="606" 
d="M265 392v162h76v-162h214v-76h-214v-162h-76v162h-214v76h214zM51 0v76h504v-76h-504z" />
    <glyph glyph-name="mu" unicode="&#xb5;" horiz-adv-x="608" 
d="M67 547h73.998v-295c0 -36 5.16699 -67.667 15.5 -95s24 -48 41 -62s34.333 -24.333 52 -31s35.834 -10 54.501 -10s36.834 3.33301 54.501 10s35 17 52 31s30.667 34.667 41 62s15.5 59 15.5 95v295h74v-547h-70v85h-2c-34 -65.333 -89 -98 -165 -98
c-68.667 0 -123 20.667 -163 62v-241h-74v739z" />
    <glyph glyph-name="mu" unicode="&#x3bc;" horiz-adv-x="608" 
d="M67 547h73.998v-295c0 -36 5.16699 -67.667 15.5 -95s24 -48 41 -62s34.333 -24.333 52 -31s35.834 -10 54.501 -10s36.834 3.33301 54.501 10s35 17 52 31s30.667 34.667 41 62s15.5 59 15.5 95v295h74v-547h-70v85h-2c-34 -65.333 -89 -98 -165 -98
c-68.667 0 -123 20.667 -163 62v-241h-74v739z" />
    <glyph glyph-name="paragraph" unicode="&#xb6;" horiz-adv-x="564" 
d="M229 -126v482c-56.667 -2 -102.834 15 -138.501 51s-53.5 82.333 -53.5 139c0 33.333 5.5 62.5 16.5 87.5s24.167 44 39.5 57s34 23.5 56 31.5s41.333 13 58 15s34.334 3 53.001 3h231v-866h-74v799h-114v-799h-74z" />
    <glyph glyph-name="periodcentered" unicode="&#xb7;" horiz-adv-x="250" 
d="M88 238v126h74v-126h-74z" />
    <glyph glyph-name="periodcentered" unicode="&#x2219;" horiz-adv-x="250" 
d="M88 238v126h74v-126h-74z" />
    <glyph glyph-name="guillemotright" unicode="&#xbb;" horiz-adv-x="426" 
d="M309 301l-95 168l58 32l114 -200l-113 -200l-58 32zM135 301l-95 168l58 32l114 -200l-113 -200l-58 32z" />
    <glyph glyph-name="afii10023" unicode="&#x401;" horiz-adv-x="536" 
d="M74 0v740h406v-67h-332v-267h321v-67h-321v-272h332v-67h-406zM158 906h74v-126h-74v126zM332 906h74v-126h-74v126z" />
    <glyph glyph-name="afii10051" unicode="&#x402;" horiz-adv-x="700" 
d="M168 0l0.00195312 672.997h-160v67h474v-67h-240v-231h169c10 0 19.667 -0.166992 29 -0.5s23.166 -2.16602 41.499 -5.49902s34.833 -7.66602 49.5 -12.999s30.667 -13.5 48 -24.5s31.833 -24.167 43.5 -39.5s21.5 -35.166 29.5 -59.499s12 -51.5 12 -81.5
c0 -29.333 -4 -56 -12 -80s-18 -43.333 -30 -58s-26.833 -27.5 -44.5 -38.5s-33.834 -19 -48.501 -24s-31.167 -9 -49.5 -12s-31.833 -4.66699 -40.5 -5s-18 -0.5 -28 -0.5h-68v67h68c119.333 0 179 50 179 150c0 105.333 -59.667 158 -179 158h-169v-375h-74z" />
    <glyph glyph-name="afii10052" unicode="&#x403;" horiz-adv-x="460" 
d="M74 0v740h379v-67h-305v-673h-74zM194 836l192 116l35 -58l-193 -114z" />
    <glyph glyph-name="afii10053" unicode="&#x404;" horiz-adv-x="811" 
d="M765 551l-87.9961 -0.000976562c-26.667 44.667 -62.167 78.334 -106.5 101.001s-92.833 34 -145.5 34c-83.333 0 -153.333 -26.5 -210 -79.5s-89.667 -119.833 -99 -200.5h452v-67h-452c8 -84.667 42.167 -153.334 102.5 -206.001s130.833 -79 211.5 -79
c47.333 0 93.833 11.833 139.5 35.5s82.5 58.167 110.5 103.5h88c-32 -58.667 -76.5 -107.667 -133.5 -147s-125.167 -59 -204.5 -59c-62.667 0 -119.334 11.5 -170.001 34.5s-91.5 53.333 -122.5 91s-54.667 78.834 -71 123.501s-24.5 90 -24.5 136
c0 44.667 8.16699 89 24.5 133s39.666 84.833 69.999 122.5s70.5 68 120.5 91s105.667 34.5 167 34.5c77.333 0 145.666 -17.667 204.999 -53s104.666 -85 135.999 -149z" />
    <glyph glyph-name="afii10054" unicode="&#x405;" horiz-adv-x="498" 
d="M22 207l73.9971 0.000976562c0.666992 -9.33301 1.83398 -18.666 3.50098 -27.999s5.66699 -22.166 12 -38.499s14.5 -30.333 24.5 -42s24.833 -22 44.5 -31s42.5 -13.5 68.5 -13.5c47.333 0 84.666 14.667 111.999 44s41 64.666 41 105.999
c0 64.667 -33 109.334 -99 134.001c-12 4.66699 -32.667 11.167 -62 19.5s-53.166 16.166 -71.499 23.499s-38.166 18 -59.499 32s-37.5 32.667 -48.5 56s-16.5 51 -16.5 83c0 22 4 44.167 12 66.5s19.833 43.833 35.5 64.5s37.667 37.5 66 50.5s60.5 19.5 96.5 19.5
c64 0 113.5 -19.833 148.5 -59.5s53.167 -86.5 54.5 -140.5h-74c-0.666992 14 -3 27.667 -7 41s-10.667 27.5 -20 42.5s-23.666 27 -42.999 36s-42 13.5 -68 13.5c-42 0 -73.667 -13.333 -95 -40s-32 -58.334 -32 -95.001c0 -37.333 11.333 -64.666 34 -81.999
s60 -33.333 112 -48l37 -11c8.66699 -2.66699 21.5 -7.33398 38.5 -14.001s30.667 -13.334 41 -20.001s22.166 -15.667 35.499 -27s23.833 -23.5 31.5 -36.5s14.167 -29 19.5 -48s8 -39.5 8 -61.5c0 -56 -19.667 -106 -59 -150s-94.666 -66 -165.999 -66
c-65.333 0 -119.833 20.667 -163.5 62s-65.5 94 -65.5 158z" />
    <glyph glyph-name="afii10055" unicode="&#x406;" horiz-adv-x="226" 
d="M76 0v740h74v-740h-74z" />
    <glyph glyph-name="afii10056" unicode="&#x407;" horiz-adv-x="240" 
d="M83 0v740h74v-740h-74zM23 906h74v-126h-74v126zM143 906h74v-126h-74v126z" />
    <glyph glyph-name="afii10057" unicode="&#x408;" horiz-adv-x="482" 
d="M408 740l0.00195312 -517.998c0 -156.667 -63.667 -235 -191 -235c-64.667 0 -114.334 18.333 -149.001 55s-53 81 -55 133h74c2.66699 -33.333 14.667 -61.833 36 -85.5s52.666 -35.5 93.999 -35.5c22 0 40.667 4 56 12s27 17.333 35 28s14 24.667 18 42
s6.33301 31.666 7 42.999s1 25.666 1 42.999v518h74z" />
    <glyph glyph-name="afii10058" unicode="&#x409;" horiz-adv-x="1040" 
d="M534 0l0.000976562 644h-2l-440 -644h-88l510 740h94v-306h170c42.667 0 79.667 -6.66699 111 -20s54.666 -28.333 69.999 -45s27.5 -36.667 36.5 -60s14.167 -41.5 15.5 -54.5s2 -25.5 2 -37.5c0 -64.667 -21.833 -117 -65.5 -157s-100.167 -60 -169.5 -60h-244z
M608.001 367v-300h171c30.667 0 57 5 79 15s38.5 23 49.5 39s19 32 24 48s7.5 32 7.5 48s-2.5 32 -7.5 48s-13 32 -24 48s-27.5 29 -49.5 39s-48.333 15 -79 15h-171z" />
    <glyph glyph-name="afii10059" unicode="&#x40a;" horiz-adv-x="1040" 
d="M534 740h74.001v-306h170c42.667 0 79.667 -6.66699 111 -20s54.666 -28.333 69.999 -45s27.5 -36.667 36.5 -60s14.167 -41.5 15.5 -54.5s2 -25.5 2 -37.5c0 -64.667 -21.833 -117 -65.5 -157s-100.167 -60 -169.5 -60h-244v367h-386v-367h-74v740h74v-306h386v306z
M608.001 367v-300h171c30.667 0 57 5 79 15s38.5 23 49.5 39s19 32 24 48s7.5 32 7.5 48s-2.5 32 -7.5 48s-13 32 -24 48s-27.5 29 -49.5 39s-48.333 15 -79 15h-171z" />
    <glyph glyph-name="afii10060" unicode="&#x40b;" horiz-adv-x="720" 
d="M168 0v673h-160v67h474v-67h-240v-231h175c42.667 0 79.667 -4.83301 111 -14.5s55.5 -21.5 72.5 -35.5s30.5 -31.667 40.5 -53s16.333 -41 19 -59s4 -38.333 4 -61v-219h-74v219c0 24.667 -1.83301 45 -5.5 61s-11.167 32 -22.5 48s-29 27.833 -53 35.5
s-54.667 11.5 -92 11.5h-175v-375h-74z" />
    <glyph glyph-name="afii10061" unicode="&#x40c;" horiz-adv-x="600" 
d="M74 740h74v-740h-74v740zM199 379l285 361h88l-285 -353l297 -387h-92zM244 836l192 116l35 -58l-193 -114z" />
    <glyph glyph-name="afii10062" unicode="&#x40e;" horiz-adv-x="620" 
d="M615 740l-335 -740h-77l87 193l-285 547h84l241 -467l208 467h77zM144 920h71.998c2 -22 11.833 -40.5 29.5 -55.5s43.834 -22.5 78.501 -22.5s60.834 7.5 78.501 22.5s27.5 33.5 29.5 55.5h72c-4 -40.667 -21.5 -74.167 -52.5 -100.5s-73.5 -39.5 -127.5 -39.5
s-96.5 13.167 -127.5 39.5s-48.5 59.833 -52.5 100.5z" />
    <glyph glyph-name="afii10145" unicode="&#x40f;" horiz-adv-x="680" 
d="M606 740v-740h-229v-192h-74v192h-229v740h74v-673h384v673h74z" />
    <glyph glyph-name="afii10017" unicode="&#x410;" horiz-adv-x="740" 
d="M11 0l319 740h82l317 -740h-80l-107 248h-344l-107 -248h-80zM227 315h286l-142 339z" />
    <glyph glyph-name="afii10018" unicode="&#x411;" horiz-adv-x="580" 
d="M74 740h402.001v-67h-328v-239h170c42.667 0 79.667 -6.66699 111 -20s54.666 -28.333 69.999 -45s27.5 -36.667 36.5 -60s14.167 -41.5 15.5 -54.5s2 -25.5 2 -37.5c0 -64.667 -21.833 -117 -65.5 -157s-100.167 -60 -169.5 -60h-244v740zM148.001 367v-300h171
c30.667 0 57 5 79 15s38.5 23 49.5 39s19 32 24 48s7.5 32 7.5 48s-2.5 32 -7.5 48s-13 32 -24 48s-27.5 29 -49.5 39s-48.333 15 -79 15h-171z" />
    <glyph glyph-name="afii10019" unicode="&#x412;" horiz-adv-x="574" 
d="M74 0l0.000976562 740.001h185c163.333 0 245 -65 245 -195c0 -62 -29.667 -111.333 -89 -148c43.333 -12.667 75.666 -36.5 96.999 -71.5s32 -73.833 32 -116.5c0 -14.667 -1.33301 -29.5 -4 -44.5s-9.5 -32.833 -20.5 -53.5s-25.5 -38.834 -43.5 -54.501
s-44.167 -29 -78.5 -40s-74.5 -16.5 -120.5 -16.5h-203zM148.001 67.001h129c128 0 192 47 192 141c0 98.667 -64 148 -192 148h-129v-289zM148.001 423.001l111 -0.000976562c114 0 171 41.667 171 125c0 23.333 -4.5 43.333 -13.5 60s-19.167 29 -30.5 37
s-26 14.333 -44 19s-32.5 7.33398 -43.5 8.00098s-24.167 1 -39.5 1h-111v-250z" />
    <glyph glyph-name="afii10020" unicode="&#x413;" horiz-adv-x="460" 
d="M74 0v740h379v-67h-305v-673h-74z" />
    <glyph glyph-name="afii10021" unicode="&#x414;" horiz-adv-x="780" 
d="M430 740l276 -673h67v-207h-74v140h-618v-140h-74v207h67l276 673h80zM154 67h472l-236 578z" />
    <glyph glyph-name="afii10022" unicode="&#x415;" horiz-adv-x="536" 
d="M74 0v740h406v-67h-332v-267h321v-67h-321v-272h332v-67h-406z" />
    <glyph glyph-name="afii10024" unicode="&#x416;" horiz-adv-x="920" 
d="M423 740h74v-740h-74v740zM390 386l-293 -386h-92l295 393l-273 347h88zM530 386l275 354h88l-273 -347l295 -393h-92z" />
    <glyph glyph-name="afii10025" unicode="&#x417;" horiz-adv-x="540" 
d="M64 547c-1.33301 56.667 16.167 105.168 52.5 145.501s89.833 60.5 160.5 60.5c71.333 0 124.666 -19.5 159.999 -58.5s53 -85.833 53 -140.5c0 -78 -37.333 -133.667 -112 -167c42 -10.667 74.5 -33 97.5 -67s34.5 -73.667 34.5 -119c0 -58.667 -20.5 -109 -61.5 -151
s-100.167 -63 -177.5 -63c-80 0 -141.167 23.667 -183.5 71s-61.5 103.333 -57.5 168h74c-1.33301 -47.333 12.167 -87.833 40.5 -121.5s70.5 -50.5 126.5 -50.5c52.667 0 93.334 13.5 122.001 40.5s43 61.833 43 104.5c0 43.333 -14.167 79.166 -42.5 107.499
s-71.5 42.5 -129.5 42.5h-44v67h44c55.333 0 94.5 14 117.5 42s34.5 60.333 34.5 97c0 33.333 -11 63.5 -33 90.5s-57 40.5 -105 40.5c-46 0 -81.167 -13.5 -105.5 -40.5s-35.833 -59.833 -34.5 -98.5h-74z" />
    <glyph glyph-name="afii10026" unicode="&#x418;" horiz-adv-x="740" 
d="M74 740h74v-635l440 635h78v-740h-74v635l-440 -635h-78v740z" />
    <glyph glyph-name="afii10027" unicode="&#x419;" horiz-adv-x="740" 
d="M74 740h74v-635l440 635h78v-740h-74v635l-440 -635h-78v740zM190 920h71.998c2 -22 11.833 -40.5 29.5 -55.5s43.834 -22.5 78.501 -22.5s60.834 7.5 78.501 22.5s27.5 33.5 29.5 55.5h72c-4 -40.667 -21.5 -74.167 -52.5 -100.5s-73.5 -39.5 -127.5 -39.5
s-96.5 13.167 -127.5 39.5s-48.5 59.833 -52.5 100.5z" />
    <glyph glyph-name="afii10028" unicode="&#x41a;" horiz-adv-x="600" 
d="M74 740h74v-740h-74v740zM199 379l285 361h88l-285 -353l297 -387h-92z" />
    <glyph glyph-name="afii10029" unicode="&#x41b;" horiz-adv-x="700" 
d="M386 740l305 -740h-81l-259 647l-261 -647h-81l307 740h70z" />
    <glyph glyph-name="afii10030" unicode="&#x41c;" horiz-adv-x="919" 
d="M74 0v740h114l272 -630l272 630h114v-740h-74v657l-281 -657h-62l-281 657v-657h-74z" />
    <glyph glyph-name="afii10031" unicode="&#x41d;" horiz-adv-x="683" 
d="M74 0v740h74v-326h387v326h74v-740h-74v347h-387v-347h-74z" />
    <glyph glyph-name="afii10032" unicode="&#x41e;" horiz-adv-x="869" 
d="M434 753c111.333 0 204.5 -35.832 279.5 -107.499s112.5 -162.167 112.5 -271.5c0 -110.667 -37.667 -202.834 -113 -276.501s-168.333 -110.5 -279 -110.5c-110 0 -202.833 36 -278.5 108s-113.5 163 -113.5 273s37.667 201.667 113 275s168.333 110 279 110z
M435 54.001c90.667 0 166.167 30.3311 226.5 90.998s90.5 137 90.5 229c0 90.667 -30.333 165.334 -91 224.001s-136 88 -226 88c-90.667 0 -166.5 -30.167 -227.5 -90.5s-91.5 -136.166 -91.5 -227.499c0 -92 30.667 -167.333 92 -226s137 -88 227 -88z" />
    <glyph glyph-name="afii10033" unicode="&#x41f;" horiz-adv-x="680" 
d="M74 0v740h532v-740h-74v673h-384v-673h-74z" />
    <glyph glyph-name="afii10034" unicode="&#x420;" horiz-adv-x="592" 
d="M74 0l0.000976562 739.999h234c41.333 0 77.833 -5.16699 109.5 -15.5s56.5 -23.166 74.5 -38.499s32.5 -33.333 43.5 -54s18.333 -40 22 -58s5.5 -36.667 5.5 -56c0 -62 -20.833 -114.333 -62.5 -157s-105.834 -64 -192.501 -64h-160v-297h-74zM148.001 672.999v-309
h161c61.333 0 106.666 14.833 135.999 44.5s44 66.167 44 109.5c0 44 -14.667 80.833 -44 110.5s-74.666 44.5 -135.999 44.5h-161z" />
    <glyph glyph-name="afii10035" unicode="&#x421;" horiz-adv-x="813" 
d="M767 551l-88.001 0.00195312c-58 90 -142 135 -252 135c-90.667 0 -165.167 -30.667 -223.5 -92s-87.5 -135.333 -87.5 -222c0 -90.667 30.5 -166.334 91.5 -227.001s135.833 -91 224.5 -91c48 0 94.5 11.667 139.5 35s81.833 58 110.5 104h88
c-34.667 -64.667 -81.667 -115.167 -141 -151.5s-125 -54.5 -197 -54.5c-110 0 -202.5 36.333 -277.5 109s-112.5 164.667 -112.5 276c0 109.333 37 200.166 111 272.499s165 108.5 273 108.5c77.333 0 145.833 -17.667 205.5 -53s104.834 -85 135.501 -149z" />
    <glyph glyph-name="afii10036" unicode="&#x422;" horiz-adv-x="426" 
d="M176 0v673h-169v67h412v-67h-169v-673h-74z" />
    <glyph glyph-name="afii10037" unicode="&#x423;" horiz-adv-x="620" 
d="M615 740l-335 -740h-77l87 193l-285 547h84l241 -467l208 467h77z" />
    <glyph glyph-name="afii10038" unicode="&#x424;" horiz-adv-x="820" 
d="M373 -37v104c-95.333 0.666992 -174.333 31.167 -237 91.5s-94 136.5 -94 228.5s31.333 168.167 94 228.5s141.667 90.833 237 91.5v93h74v-93c95.333 -0.666992 174.333 -31.167 237 -91.5s94 -136.5 94 -228.5s-31.333 -168.167 -94 -228.5
s-141.667 -90.833 -237 -91.5v-104h-74zM373 134v506c-77.333 0.666992 -139.5 -23.333 -186.5 -72s-70.5 -109 -70.5 -181s23.5 -132.333 70.5 -181s109.167 -72.667 186.5 -72zM447 640v-506c77.333 -0.666992 139.5 23.333 186.5 72s70.5 109 70.5 181
s-23.5 132.333 -70.5 181s-109.167 72.667 -186.5 72z" />
    <glyph glyph-name="afii10039" unicode="&#x425;" horiz-adv-x="609" 
d="M8 0l251 378l-236 362h87l195 -297l194 297h87l-239 -362l254 -378h-87l-209 316l-210 -316h-87z" />
    <glyph glyph-name="afii10040" unicode="&#x426;" horiz-adv-x="720" 
d="M606 740v-673h103v-207h-74v140h-561v740h74v-673h384v673h74z" />
    <glyph glyph-name="afii10041" unicode="&#x427;" horiz-adv-x="620" 
d="M546 740l-0.00195312 -740h-74v297h-175c-81.333 0 -141.666 16 -180.999 48c-27.333 22 -45.166 47.167 -53.499 75.5s-12.5 61.5 -12.5 99.5v220h74v-220c0 -58 14.667 -99 44 -123c26 -22 69 -33 129 -33h175v376h74z" />
    <glyph glyph-name="afii10042" unicode="&#x428;" horiz-adv-x="960" 
d="M74 740h74v-673h295v673h74v-673h295v673h74v-740h-812v740z" />
    <glyph glyph-name="afii10043" unicode="&#x429;" horiz-adv-x="1000" 
d="M74 740h74v-673h295v673h74v-673h295v673h74v-673h103v-207h-74v140h-841v740z" />
    <glyph glyph-name="afii10044" unicode="&#x42a;" horiz-adv-x="680" 
d="M7 740h241v-306h170c74 0 131.667 -19.5 173 -58.5s62 -91.833 62 -158.5c0 -64.667 -21.667 -117 -65 -157s-100 -60 -170 -60h-244v673h-167v67zM248 367v-300h171c30.667 0 57 5 79 15s38.5 23 49.5 39s19 32 24 48s7.5 32 7.5 48s-2.5 32 -7.5 48s-13 32 -24 48
s-27.5 29 -49.5 39s-48.333 15 -79 15h-171z" />
    <glyph glyph-name="afii10045" unicode="&#x42b;" horiz-adv-x="780" 
d="M74 740h74v-306h170c74 0 131.667 -19.5 173 -58.5s62 -91.833 62 -158.5c0 -64.667 -21.667 -117 -65 -157s-100 -60 -170 -60h-244v740zM148 367v-300h171c30.667 0 57 5 79 15s38.5 23 49.5 39s19 32 24 48s7.5 32 7.5 48s-2.5 32 -7.5 48s-13 32 -24 48
s-27.5 29 -49.5 39s-48.333 15 -79 15h-171zM632 0v740h74v-740h-74z" />
    <glyph glyph-name="afii10046" unicode="&#x42c;" horiz-adv-x="580" 
d="M74 740h74v-306h170c74 0 131.667 -19.5 173 -58.5s62 -91.833 62 -158.5c0 -64.667 -21.667 -117 -65 -157s-100 -60 -170 -60h-244v740zM148 367v-300h171c30.667 0 57 5 79 15s38.5 23 49.5 39s19 32 24 48s7.5 32 7.5 48s-2.5 32 -7.5 48s-13 32 -24 48
s-27.5 29 -49.5 39s-48.333 15 -79 15h-171z" />
    <glyph glyph-name="afii10047" unicode="&#x42d;" horiz-adv-x="813" 
d="M134 551l-87.999 0.00292969c31.333 64 76.666 113.667 135.999 149s127.666 53 204.999 53c62 0 118.333 -11.667 169 -35s91.167 -53.833 121.5 -91.5s53.5 -78.334 69.5 -122.001s24 -87.834 24 -132.501c0 -112 -37.5 -204.167 -112.5 -276.5
s-167.5 -108.5 -277.5 -108.5c-72 0 -137.667 18.167 -197 54.5s-106.333 86.833 -141 151.5h88c28 -45.333 64.833 -79.833 110.5 -103.5s92.167 -35.5 139.5 -35.5c81.333 0 152.333 26.5 213 79.5s95 121.5 103 205.5h-434v67h434
c-9.33301 80 -42.666 146.667 -99.999 200s-127.666 80 -210.999 80c-52 0 -100.333 -11.333 -145 -34s-80.334 -56.334 -107.001 -101.001z" />
    <glyph glyph-name="afii10048" unicode="&#x42e;" horiz-adv-x="1080" 
d="M148 414l128.998 -0.000976562c12 102.667 53.667 184.834 125 246.501s156.333 92.5 255 92.5c108.667 0 199.334 -35.667 272.001 -107s109 -162 109 -272c0 -111.333 -36.667 -203.666 -110 -276.999s-163.666 -110 -270.999 -110c-103.333 0 -191.5 32.667 -264.5 98
s-111.5 152.666 -115.5 261.999h-129v-347h-74v740h74v-326zM657.998 53.999c86.667 0 159.334 30.3311 218.001 90.998s88 137 88 229c0 90.667 -29.333 165.334 -88 224.001s-131.334 88 -218.001 88c-87.333 0 -160.333 -30.167 -219 -90.5s-88 -136.166 -88 -227.499
s29.333 -166.5 88 -225.5s131.667 -88.5 219 -88.5z" />
    <glyph glyph-name="afii10049" unicode="&#x42f;" horiz-adv-x="600" 
d="M526 740l-0.000976562 -739.997h-74v673h-133c-42 0 -78 -4.83301 -108 -14.5s-52.667 -23 -68 -40s-26.5 -34.833 -33.5 -53.5s-10.5 -38.667 -10.5 -60c0 -22.667 3.5 -43.334 10.5 -62.001s15.5 -33.834 25.5 -45.501s22.5 -21.667 37.5 -30s28.833 -14.5 41.5 -18.5
s27 -7.16699 43 -9.5s28 -3.66602 36 -3.99902s16.667 -0.5 26 -0.5h59l-241 -335h-92l202 276c-66.667 3.33301 -120.334 26.166 -161.001 68.499s-61 93.5 -61 153.5c0 32.667 4.83301 62.167 14.5 88.5s21.334 47.833 35.001 64.5s30.834 31 51.501 43
s39.5 20.833 56.5 26.5s36.167 10.167 57.5 13.5s37 5.16602 47 5.49902s20.667 0.5 32 0.5h207z" />
    <glyph glyph-name="afii10065" unicode="&#x430;" horiz-adv-x="683" 
d="M620 547v-547h-70v102h-2c-50.667 -76.667 -121.667 -115 -213 -115c-82.667 0 -152.167 27.333 -208.5 82s-84.5 124 -84.5 208c0 33.333 6.16699 66.333 18.5 99s30 63 53 91s53.667 50.5 92 67.5s80.833 25.5 127.5 25.5c96 0 167.667 -36 215 -108h2v95h70zM333 493
c-60 0 -111.166 -21.332 -153.499 -63.999s-63.5 -95.334 -63.5 -158.001c0 -61.333 21.667 -112.833 65 -154.5s94.666 -62.5 153.999 -62.5c60 0 110.833 21 152.5 63s62.5 93 62.5 153c0 62.667 -20.833 115.5 -62.5 158.5s-93.167 64.5 -154.5 64.5z" />
    <glyph glyph-name="afii10066" unicode="&#x431;" horiz-adv-x="660" 
d="M595 740l0.00195312 -66.999l-235 -16c-14 -0.666992 -26 -1.66699 -36 -3s-24 -4.33301 -42 -9s-33.667 -10.334 -47 -17.001s-28 -16.5 -44 -29.5s-29.167 -28 -39.5 -45s-19.5 -38.667 -27.5 -65s-13 -55.833 -15 -88.5h2c14 30.667 32.167 56.334 54.5 77.001
s45.666 35.167 69.999 43.5s44.166 13.833 59.499 16.5s29.666 4 42.999 4c83.333 0 150.833 -25.167 202.5 -75.5s77.5 -117.5 77.5 -201.5c0 -80.667 -26.167 -147 -78.5 -199s-120.166 -78 -203.499 -78c-87.333 0 -158.166 29 -212.499 87s-81.5 147.667 -81.5 269
c0 63.333 7.16699 118.5 21.5 165.5s31.666 83.333 51.999 109s45.833 46.667 76.5 63s58.5 27.166 83.5 32.499s53.167 9 84.5 11zM336.002 474.001c-60 0 -109.667 -20 -149 -60s-59 -90 -59 -150s19.667 -110 59 -150s89 -60 149 -60c61.333 0 111.333 20.167 150 60.5
s58 90.166 58 149.499c0 62.667 -19.5 113.334 -58.5 152.001s-88.833 58 -149.5 58z" />
    <glyph glyph-name="afii10067" unicode="&#x432;" horiz-adv-x="480" 
d="M63 547l196 -0.00195312c58 0 99.5 -14.333 124.5 -43s37.5 -63 37.5 -103c0 -25.333 -6.66699 -48.166 -20 -68.499s-31 -35.166 -53 -44.499c28 -7.33301 50.5 -22.833 67.5 -46.5s25.5 -51.5 25.5 -83.5c0 -44.667 -15.5 -82.167 -46.5 -112.5
s-74.167 -45.5 -129.5 -45.5h-202v547zM137 479.998l-0.000976562 -166.001h117c28.667 0 51.334 7.83301 68.001 23.5s25 36.834 25 63.501c0 52.667 -31 79 -93 79h-117zM136.999 246.997v-179.999h120c39.333 0 67.5 9.16699 84.5 27.5s25.5 39.166 25.5 62.499
c0 8 -1 16 -3 24s-6.33301 17.667 -13 29s-18 20.333 -34 27s-36 10 -60 10h-120z" />
    <glyph glyph-name="afii10068" unicode="&#x433;" horiz-adv-x="360" 
d="M63 547h285v-67h-211v-480h-74v547z" />
    <glyph glyph-name="afii10069" unicode="&#x434;" horiz-adv-x="640" 
d="M360 547l213 -480h57v-207h-74v140h-472v-140h-74v207h57l213 480h80zM147 67h346l-173 397z" />
    <glyph glyph-name="afii10070" unicode="&#x435;" horiz-adv-x="650" 
d="M608 247h-489.002c4.66699 -55.333 26.334 -101.333 65.001 -138s86.334 -55 143.001 -55c42.667 0 80.834 11.167 114.501 33.5s59.167 52.5 76.5 90.5h77c-22 -59.333 -56.667 -106 -104 -140s-102 -51 -164 -51c-80.667 0 -148.334 27.167 -203.001 81.5
s-82 122.5 -82 204.5c0 34.667 6.33301 68.667 19 102s30.5 64 53.5 92s53 50.5 90 67.5s77.833 25.5 122.5 25.5c40 0 76.167 -6.33301 108.5 -19s59 -29.5 80 -50.5s38.667 -45.167 53 -72.5s24.5 -55.333 30.5 -84s9 -57.667 9 -87zM118.998 314h409.001
c-10 54.667 -33.833 98.167 -71.5 130.5s-80.834 48.5 -129.501 48.5c-52 0 -97.333 -16.833 -136 -50.5s-62.667 -76.5 -72 -128.5z" />
    <glyph glyph-name="afii10072" unicode="&#x436;" horiz-adv-x="760" 
d="M99 0h-93l224 285l-204 262h87l204 -270zM417 0h-74v547h74v-547zM661 0l-218 277l204 270h87l-204 -262l224 -285h-93z" />
    <glyph glyph-name="afii10073" unicode="&#x437;" horiz-adv-x="460" 
d="M132 413l-74.0029 0.000976562c4.66699 50 24.334 87 59.001 111s73.667 36 117 36c46 0 86.167 -11.833 120.5 -35.5s51.5 -59.5 51.5 -107.5c0 -28.667 -7.16699 -55 -21.5 -79s-34.833 -41.333 -61.5 -52c31.333 -8 55.333 -24.167 72 -48.5s25 -53.5 25 -87.5
c0 -48 -17.333 -87.167 -52 -117.5s-79.667 -45.5 -135 -45.5c-64.667 0 -113.167 16.167 -145.5 48.5s-48.166 72.833 -47.499 121.5h74c0 -30.667 10.5 -55.5 31.5 -74.5s50.167 -28.5 87.5 -28.5c22.667 0 42 3.33301 58 10s27.667 15.5 35 26.5s12.5 21.167 15.5 30.5
s4.5 18.333 4.5 27c0 27.333 -8.33301 50.666 -25 69.999s-46 29 -88 29h-49v67h49c32 0 56.5 9 73.5 27s25.5 40 25.5 66c0 24.667 -8 45.167 -24 61.5s-39.333 24.5 -70 24.5s-55.167 -7.33301 -73.5 -22s-29.166 -34 -32.499 -58z" />
    <glyph glyph-name="afii10074" unicode="&#x438;" horiz-adv-x="600" 
d="M63 547h74v-442l326 442h74v-547h-74v442l-326 -442h-74v547z" />
    <glyph glyph-name="afii10075" unicode="&#x439;" horiz-adv-x="600" 
d="M63 547h74v-442l326 442h74v-547h-74v442l-326 -442h-74v547zM148 740h63c4 -22 14.333 -39 31 -51s36 -18 58 -18s41.333 6 58 18s27 29 31 51h63c-6 -33.333 -21.5 -62.666 -46.5 -87.999s-60.167 -38 -105.5 -38s-80.5 12.667 -105.5 38s-40.5 54.666 -46.5 87.999z
" />
    <glyph glyph-name="afii10076" unicode="&#x43a;" horiz-adv-x="500" 
d="M137 0h-74v547h74v-547zM400 0l-220 277l214 270h87l-210 -264l224 -283h-95z" />
    <glyph glyph-name="afii10077" unicode="&#x43b;" horiz-adv-x="560" 
d="M319 547l233 -547h-80l-192 453l-192 -453h-80l234 547h77z" />
    <glyph glyph-name="afii10078" unicode="&#x43c;" horiz-adv-x="720" 
d="M63 0v547h114l183 -447l183 447h114v-547h-74v465l-191 -465h-64l-191 465v-465h-74z" />
    <glyph glyph-name="afii10079" unicode="&#x43d;" horiz-adv-x="580" 
d="M63 547h74v-233h306v233h74v-547h-74v247h-306v-247h-74v547z" />
    <glyph glyph-name="afii10080" unicode="&#x43e;" horiz-adv-x="655" 
d="M328 560c81.333 0 149.333 -27.5 204 -82.5s82 -123.167 82 -204.5s-27.5 -149.333 -82.5 -204s-122.833 -82 -203.5 -82s-148.5 27.333 -203.5 82s-82.5 122.667 -82.5 204s27.333 149.5 82 204.5s122.667 82.5 204 82.5zM328 493c-61.333 0 -112 -21 -152 -63
s-60 -94.333 -60 -157s20 -114.834 60 -156.501s90.667 -62.5 152 -62.5s112 20.833 152 62.5s60 93.834 60 156.501s-20 115 -60 157s-90.667 63 -152 63z" />
    <glyph glyph-name="afii10081" unicode="&#x43f;" horiz-adv-x="580" 
d="M63 547h454v-547h-74v480h-306v-480h-74v547z" />
    <glyph glyph-name="afii10082" unicode="&#x440;" horiz-adv-x="682" 
d="M63 -192v739h70v-94h2c51.333 71.333 122.666 107 213.999 107c90 0 161 -29.167 213 -87.5s78 -125.5 78 -201.5c0 -81.333 -27.833 -149 -83.5 -203s-125.5 -81 -209.5 -81c-93.333 0 -162.666 38.333 -207.999 115h-2v-294h-74zM349 493
c-62.667 0 -114.334 -21.501 -155.001 -64.501s-61 -95.833 -61 -158.5c0 -61.333 20.167 -112.666 60.5 -153.999s91.5 -62 153.5 -62c60.667 0 112.334 21 155.001 63s64 93.667 64 155c0 62 -21 114.333 -63 157s-93.333 64 -154 64z" />
    <glyph glyph-name="afii10083" unicode="&#x441;" horiz-adv-x="647" 
d="M518 160h82c-22 -48.667 -54.833 -89.667 -98.5 -123s-99.5 -50 -167.5 -50c-88.667 0 -159.5 28.667 -212.5 86s-79.5 124.333 -79.5 201c0 45.333 10.667 89.333 32 132s54.833 79 100.5 109s98.834 45 159.501 45c62.667 0 117.334 -16 164.001 -48
s81 -75.667 103 -131h-83c-12.667 25.333 -28.334 46.333 -47.001 63s-37.834 28 -57.501 34s-35.167 10 -46.5 12s-22.333 3 -33 3c-62.667 0 -114.667 -21 -156 -63s-62 -93.667 -62 -155c0 -62 21.333 -114.333 64 -157s94 -64 154 -64c38 0 73.333 9.16699 106 27.5
s58.667 44.5 78 78.5z" />
    <glyph glyph-name="afii10084" unicode="&#x442;" horiz-adv-x="380" 
d="M12 547h356v-67h-141v-480h-74v480h-141v67z" />
    <glyph glyph-name="afii10085" unicode="&#x443;" horiz-adv-x="536" 
d="M450 547h79l-316 -739h-79l91 217l-215 522h88l172 -426z" />
    <glyph glyph-name="afii10086" unicode="&#x444;" horiz-adv-x="740" 
d="M333 740h73.9961v-180c86.667 -4.66699 156.834 -34.667 210.501 -90s80.5 -121.666 80.5 -198.999c0 -30 -6.16699 -60.667 -18.5 -92s-29.833 -61 -52.5 -89s-53.167 -51.5 -91.5 -70.5s-81.166 -29.833 -128.499 -32.5v-179h-74v179
c-47.333 2.66699 -90.166 13.5 -128.499 32.5s-68.833 42.5 -91.5 70.5s-40.167 57.667 -52.5 89s-18.5 62 -18.5 92c0 77.333 26.833 143.666 80.5 198.999s123.834 85.333 210.501 90v180zM332.996 54v438.998c-63.333 -1.33301 -115.333 -22.666 -156 -63.999
s-61 -94.333 -61 -159c0 -56 19.333 -105.167 58 -147.5s91.667 -65.166 159 -68.499zM406.996 492.998v-438.998c67.333 3.33301 120.333 26.166 159 68.499s58 91.5 58 147.5c0 64.667 -20.333 117.667 -61 159s-92.667 62.666 -156 63.999z" />
    <glyph glyph-name="afii10087" unicode="&#x445;" horiz-adv-x="480" 
d="M8 0l187 278l-187 269h87l145 -211l145 211h87l-188 -269l188 -278h-87l-145 219l-145 -219h-87z" />
    <glyph glyph-name="afii10088" unicode="&#x446;" horiz-adv-x="620" 
d="M63 547h74v-480h308v480h74v-480h89v-207h-74v140h-471v547z" />
    <glyph glyph-name="afii10089" unicode="&#x447;" horiz-adv-x="520" 
d="M457 547l0.000976562 -547h-74v206h-141c-36 0 -65.833 3 -89.5 9s-44.834 19.333 -63.501 40c-16 18 -26.167 37.333 -30.5 58s-6.5 47 -6.5 79v155h74v-155c0 -46.667 9.33301 -78.667 28 -96c16.667 -15.333 46 -23 88 -23h141v274h74z" />
    <glyph glyph-name="afii10090" unicode="&#x448;" horiz-adv-x="820" 
d="M63 547h74v-480h236v480h74v-480h236v480h74v-547h-694v547z" />
    <glyph glyph-name="afii10091" unicode="&#x449;" horiz-adv-x="860" 
d="M63 547h74v-480h236v480h74v-480h236v480h74v-480h91v-207h-74v140h-711v547z" />
    <glyph glyph-name="afii10092" unicode="&#x44a;" horiz-adv-x="580" 
d="M12 547l205 -0.00195312v-209h142c31.333 0 59 -4.33301 83 -13s42.667 -19.167 56 -31.5s24 -26.666 32 -42.999s13.333 -31 16 -44s4 -25.5 4 -37.5c0 -18 -3 -35.833 -9 -53.5s-15.333 -35.667 -28 -54s-32 -33.166 -58 -44.499s-56.333 -17 -91 -17h-221v480h-131v67
zM217 270.998v-204.002h146c36.667 0 64.667 9.83301 84 29.5s29 43.834 29 72.501s-9.66699 52.834 -29 72.501s-47.333 29.5 -84 29.5h-146z" />
    <glyph glyph-name="afii10093" unicode="&#x44b;" horiz-adv-x="680" 
d="M63 547l74 -0.00195312v-209h147c34.667 0 65 -5.66699 91 -17s45.333 -26.166 58 -44.499s22 -36.333 28 -54s9 -35.5 9 -53.5s-3 -35.833 -9 -53.5s-15.333 -35.667 -28 -54s-32 -33.166 -58 -44.499s-56.333 -17 -91 -17h-221v547zM137 270.998v-204.002h146
c36.667 0 64.667 9.83301 84 29.5s29 43.834 29 72.501s-9.66699 52.834 -29 72.501s-47.333 29.5 -84 29.5h-146zM543 -0.00390625v547h74v-547h-74z" />
    <glyph glyph-name="afii10094" unicode="&#x44c;" horiz-adv-x="500" 
d="M63 547l74 -0.00195312v-209h147c34.667 0 65 -5.66699 91 -17s45.333 -26.166 58 -44.499s22 -36.333 28 -54s9 -35.5 9 -53.5s-3 -35.833 -9 -53.5s-15.333 -35.667 -28 -54s-32 -33.166 -58 -44.499s-56.333 -17 -91 -17h-221v547zM137 270.998v-204.002h146
c36.667 0 64.667 9.83301 84 29.5s29 43.834 29 72.501s-9.66699 52.834 -29 72.501s-47.333 29.5 -84 29.5h-146z" />
    <glyph glyph-name="afii10095" unicode="&#x44d;" horiz-adv-x="646" 
d="M47 160l82.0039 0.000976562c18.667 -36 44.834 -62.667 78.501 -80s69.167 -26 106.5 -26c55.333 0 103.5 18.333 144.5 55s64.833 82.667 71.5 138h-312v67h312c-9.33301 54.667 -34.833 98.167 -76.5 130.5s-88.167 48.5 -139.5 48.5c-40 0 -76 -9.83301 -108 -29.5
s-57.667 -47.167 -77 -82.5h-83c4.66699 10.667 9.66699 21.167 15 31.5s15.666 25.166 30.999 44.499s32.166 35.833 50.499 49.5s42.666 26 72.999 37s63.166 16.5 98.499 16.5c61.333 0 114.666 -14.833 159.999 -44.5s78.333 -65.667 99 -108s31 -86.833 31 -133.5
c0 -76.667 -26 -143.667 -78 -201s-122.667 -86 -212 -86c-60.667 0 -114.667 14.667 -162 44s-82.333 72.333 -105 129z" />
    <glyph glyph-name="afii10096" unicode="&#x44e;" horiz-adv-x="860" 
d="M137 314l110.002 -0.000976562c9.33301 70.667 40.5 129.334 93.5 176.001s117.167 70 192.5 70c81.333 0 149.166 -27.333 203.499 -82s81.5 -123 81.5 -205c0 -81.333 -27.333 -149.333 -82 -204s-122.334 -82 -203.001 -82c-74 0 -138.333 23.833 -193 71.5
s-85.667 110.5 -93 188.5h-110v-247h-74v547h74v-233zM533.002 492.999c-61.333 0 -112 -20.999 -152 -62.999s-60 -94.333 -60 -157s20 -114.834 60 -156.501s90.667 -62.5 152 -62.5c60.667 0 111 21 151 63s60 94 60 156c0 62.667 -19.833 115 -59.5 157
s-90.167 63 -151.5 63z" />
    <glyph glyph-name="afii10097" unicode="&#x44f;" horiz-adv-x="520" 
d="M457 547l-0.00195312 -546.998h-74v480h-147c-9.33301 0 -18.666 -0.833008 -27.999 -2.5s-22.833 -5.66699 -40.5 -12s-32 -18.333 -43 -36s-16.5 -39.834 -16.5 -66.501c0 -32.667 10.5 -59.167 31.5 -79.5s53.167 -30.5 96.5 -30.5h75l-182 -253h-85l149 195
c-47.333 3.33301 -85.666 21 -114.999 53s-44 71.667 -44 119c0 49.333 18 91.666 54 126.999s85.333 53 148 53h221z" />
    <glyph glyph-name="afii10071" unicode="&#x451;" horiz-adv-x="650" 
d="M608 247h-489.002c4.66699 -55.333 26.334 -101.333 65.001 -138s86.334 -55 143.001 -55c42.667 0 80.834 11.167 114.501 33.5s59.167 52.5 76.5 90.5h77c-22 -59.333 -56.667 -106 -104 -140s-102 -51 -164 -51c-80.667 0 -148.334 27.167 -203.001 81.5
s-82 122.5 -82 204.5c0 34.667 6.33301 68.667 19 102s30.5 64 53.5 92s53 50.5 90 67.5s77.833 25.5 122.5 25.5c40 0 76.167 -6.33301 108.5 -19s59 -29.5 80 -50.5s38.667 -45.167 53 -72.5s24.5 -55.333 30.5 -84s9 -57.667 9 -87zM118.998 314h409.001
c-10 54.667 -33.833 98.167 -71.5 130.5s-80.834 48.5 -129.501 48.5c-52 0 -97.333 -16.833 -136 -50.5s-62.667 -76.5 -72 -128.5zM216.999 740h74v-126h-74v126zM363.999 740h74v-126h-74v126z" />
    <glyph glyph-name="afii10099" unicode="&#x452;" horiz-adv-x="610" 
d="M63 0l-0.000976562 612.006h-100v67h100v61h74v-61h286v-67h-286v-184c42 61.333 101 92 177 92c68 0 124.833 -22.5 170.5 -67.5s68.5 -113.167 68.5 -204.5v-206c0 -18 -0.833008 -34.833 -2.5 -50.5s-6.33398 -35.667 -14.001 -60s-18.334 -44.833 -32.001 -61.5
s-34 -31.334 -61 -44.001s-58.833 -18.667 -95.5 -18v71c24.667 0 45.834 4.16699 63.501 12.5s30.667 17.666 39 27.999s14.833 24.166 19.5 41.499s7.33398 31.166 8.00098 41.499s1 23.5 1 39.5v206c0 13.333 -0.5 25.833 -1.5 37.5s-4.66699 28.667 -11 51
s-15 41.166 -26 56.499s-28.333 29.166 -52 41.499s-51.5 18.5 -83.5 18.5c-20.667 0 -40.167 -3 -58.5 -9s-36.166 -15.833 -53.499 -29.5s-31 -33.667 -41 -60s-15 -57.833 -15 -94.5v-260h-74z" />
    <glyph glyph-name="afii10100" unicode="&#x453;" horiz-adv-x="360" 
d="M63 547h285v-67h-211v-480h-74v547zM114 669l192 116l35 -58l-193 -114z" />
    <glyph glyph-name="afii10101" unicode="&#x454;" horiz-adv-x="645" 
d="M516 160h82.002c-22 -48.667 -54.667 -89.667 -98 -123s-99 -50 -167 -50c-90 0 -161 28.5 -213 85.5s-78 124.167 -78 201.5c0 34 6.16699 67.667 18.5 101s30.166 63.833 53.499 91.5s54 50.167 92 67.5s80.333 26 127 26c64 0 118.833 -16.167 164.5 -48.5
s79.5 -75.833 101.5 -130.5h-83c-11.333 24.667 -26.333 45.5 -45 62.5s-38 28.5 -58 34.5s-35.667 10 -47 12s-22.333 3 -33 3c-52.667 0 -99.5 -15.833 -140.5 -47.5s-66.167 -75.5 -75.5 -131.5h322v-67h-323c6 -55.333 29.667 -101.333 71 -138s90 -55 146 -55
c38 0 73.167 9.16699 105.5 27.5s58.166 44.5 77.499 78.5z" />
    <glyph glyph-name="afii10102" unicode="&#x455;" horiz-adv-x="388" 
d="M22 161l74.001 0.00292969c-2.66699 -29.333 5.16602 -54.5 23.499 -75.5s43.5 -31.5 75.5 -31.5c30 0 53.5 9.33301 70.5 28s25.5 41 25.5 67c0 34 -16 60.667 -48 80c-9.33301 6 -28.666 14 -57.999 24c-20 6.66699 -36 12.667 -48 18s-26.5 13.833 -43.5 25.5
s-29.833 26.667 -38.5 45s-13 39.833 -13 64.5c0 44 14.333 80.667 43 110s67 44 115 44c44.667 0 81.167 -14.167 109.5 -42.5s42.166 -63.833 41.499 -106.5h-74c0.666992 24 -6.5 43.667 -21.5 59s-34.167 23 -57.5 23c-25.333 0 -45.333 -7.66699 -60 -23
s-22 -34.666 -22 -57.999c0 -14.667 2.83301 -27.667 8.5 -39s14.5 -20.833 26.5 -28.5s23 -13.5 33 -17.5s23 -8.66699 39 -14c21.333 -6.66699 38.333 -12.834 51 -18.501s27 -14.334 43 -26.001s28 -26.334 36 -44.001s12 -38.834 12 -63.501
c0 -51.333 -15.667 -93.166 -47 -125.499s-74.333 -48.5 -129 -48.5c-54 0 -95.333 16.667 -124 50s-43 74.666 -43 123.999z" />
    <glyph glyph-name="afii10103" unicode="&#x456;" horiz-adv-x="200" 
d="M63 0v547h74v-547h-74zM63 614v126h74v-126h-74z" />
    <glyph glyph-name="afii10104" unicode="&#x457;" horiz-adv-x="260" 
d="M93 0v547h74v-547h-74zM26 740h74v-126h-74v126zM160 740h74v-126h-74v126z" />
    <glyph glyph-name="afii10105" unicode="&#x458;" horiz-adv-x="203" 
d="M140 547l0.00195312 -505c0 -55.333 -4.66699 -95.333 -14 -120c-13.333 -34.667 -35.833 -62.334 -67.5 -83.001s-66.167 -31 -103.5 -31v71c26 0.666992 47.167 6.33398 63.5 17.001s27.666 26 33.999 46s10.166 36.5 11.499 49.5s2 29.833 2 50.5v505h74zM66.002 614
v126h74v-126h-74z" />
    <glyph glyph-name="afii10106" unicode="&#x459;" horiz-adv-x="840" 
d="M403 0v452.998h-2l-301 -453h-88l371 547h94v-209h147c34.667 0 65 -5.66699 91 -17s45.333 -26.166 58 -44.499s22 -36.333 28 -54s9 -35.5 9 -53.5s-3 -35.833 -9 -53.5s-15.333 -35.667 -28 -54s-32 -33.166 -58 -44.499s-56.333 -17 -91 -17h-221zM477 270.998
v-204.002h146c36.667 0 64.667 9.83301 84 29.5s29 43.834 29 72.501s-9.66699 52.834 -29 72.501s-47.333 29.5 -84 29.5h-146z" />
    <glyph glyph-name="afii10107" unicode="&#x45a;" horiz-adv-x="857" 
d="M420 547l74 -0.00195312v-209h147c34.667 0 65 -5.66699 91 -17s45.333 -26.166 58 -44.499s22 -36.333 28 -54s9 -35.5 9 -53.5s-3 -35.833 -9 -53.5s-15.333 -35.667 -28 -54s-32 -33.166 -58 -44.499s-56.333 -17 -91 -17h-221v271h-283v-271h-74v547h74v-209h283v209
zM494 270.998v-204.002h146c36.667 0 64.667 9.83301 84 29.5s29 43.834 29 72.501s-9.66699 52.834 -29 72.501s-47.333 29.5 -84 29.5h-146z" />
    <glyph glyph-name="afii10108" unicode="&#x45b;" horiz-adv-x="610" 
d="M63 0l-0.000976562 612.002h-100v67h100v61h74v-61h286v-67h-286v-184c42 61.333 101 92 177 92c68 0 124.833 -22.5 170.5 -67.5s68.5 -113.167 68.5 -204.5v-248h-74v248c0 13.333 -0.5 25.833 -1.5 37.5s-4.66699 28.667 -11 51s-15 41.166 -26 56.499
s-28.333 29.166 -52 41.499s-51.5 18.5 -83.5 18.5c-20.667 0 -40.167 -3 -58.5 -9s-36.166 -15.833 -53.499 -29.5s-31 -33.667 -41 -60s-15 -57.833 -15 -94.5v-260h-74z" />
    <glyph glyph-name="afii10109" unicode="&#x45c;" horiz-adv-x="500" 
d="M137 0h-74v547h74v-547zM400 0l-220 277l214 270h87l-210 -264l224 -283h-95zM194 669l192 116l35 -58l-193 -114z" />
    <glyph glyph-name="afii10110" unicode="&#x45e;" horiz-adv-x="536" 
d="M450 547h79l-316 -739h-79l91 217l-215 522h88l172 -426zM134 740h63c4 -22 14.333 -39 31 -51s36 -18 58 -18s41.333 6 58 18s27 29 31 51h63c-6 -33.333 -21.5 -62.666 -46.5 -87.999s-60.167 -38 -105.5 -38s-80.5 12.667 -105.5 38s-40.5 54.666 -46.5 87.999z" />
    <glyph glyph-name="afii10193" unicode="&#x45f;" horiz-adv-x="580" 
d="M63 547h74v-480h306v480h74v-547h-190v-160h-74v160h-190v547z" />
    <glyph glyph-name="afii10050" unicode="&#x490;" horiz-adv-x="460" 
d="M74 0v740h305v120h74v-187h-305v-673h-74z" />
    <glyph glyph-name="afii10098" unicode="&#x491;" horiz-adv-x="360" 
d="M63 547h211v113h74v-180h-211v-480h-74v547z" />
    <glyph glyph-name="endash" unicode="&#x2013;" horiz-adv-x="500" 
d="M0 334h500v-67h-500v67z" />
    <glyph glyph-name="emdash" unicode="&#x2014;" horiz-adv-x="1000" 
d="M0 334h1000v-67h-1000v67z" />
    <glyph glyph-name="quoteleft" unicode="&#x2018;" horiz-adv-x="351" 
d="M273 547h-74l-88 193h74z" />
    <glyph glyph-name="quoteright" unicode="&#x2019;" horiz-adv-x="351" 
d="M79 547l88 193h74l-88 -193h-74z" />
    <glyph glyph-name="quotesinglbase" unicode="&#x201a;" horiz-adv-x="354" 
d="M80 -67l88 193h74l-88 -193h-74z" />
    <glyph glyph-name="quotedblleft" unicode="&#x201c;" horiz-adv-x="502" 
d="M406 547h-74l-88 193h74zM258 547h-74l-88 193h74z" />
    <glyph glyph-name="quotedblright" unicode="&#x201d;" horiz-adv-x="484" 
d="M87 547l88 193h74l-88 -193h-74zM235 547l88 193h74l-88 -193h-74z" />
    <glyph glyph-name="quotedblbase" unicode="&#x201e;" horiz-adv-x="502" 
d="M96 -67l88 193h74l-88 -193h-74zM244 -67l88 193h74l-88 -193h-74z" />
    <glyph glyph-name="dagger" unicode="&#x2020;" horiz-adv-x="553" 
d="M314 740v-201h181v-67h-181v-599h-74v599h-181v67h181v201h74z" />
    <glyph glyph-name="daggerdbl" unicode="&#x2021;" horiz-adv-x="553" 
d="M314 740v-178h181v-67h-181v-95h181v-67h-181v-461h-74v461h-181v67h181v95h-181v67h181v178h74z" />
    <glyph glyph-name="bullet" unicode="&#x2022;" horiz-adv-x="606" 
d="M143 300c0 44.667 15.5 82.5 46.5 113.5s68.833 46.5 113.5 46.5s82.5 -15.5 113.5 -46.5s46.5 -68.833 46.5 -113.5s-15.5 -82.5 -46.5 -113.5s-68.833 -46.5 -113.5 -46.5s-82.5 15.5 -113.5 46.5s-46.5 68.833 -46.5 113.5z" />
    <glyph glyph-name="ellipsis" unicode="&#x2026;" horiz-adv-x="1000" 
d="M130 0v126h74v-126h-74zM463 0v126h74v-126h-74zM796 0v126h74v-126h-74z" />
    <glyph glyph-name="perthousand" unicode="&#x2030;" horiz-adv-x="1174" 
d="M185 0l332 740h72l-332 -740h-72zM18 578c0 48.667 17.167 90 51.5 124s75.5 51 123.5 51c48.667 0 90 -16.833 124 -50.5s51 -75.167 51 -124.5c0 -48 -17 -89.167 -51 -123.5s-75.333 -51.5 -124 -51.5s-90 17 -124 51s-51 75.333 -51 124zM88 578
c0 -29.333 10.335 -54.168 31.002 -74.501s45.334 -30.5 74.001 -30.5c29.333 0 54.166 10.333 74.499 31s30.5 45.334 30.5 74.001c0 29.333 -10.333 54.166 -31 74.499s-45.334 30.5 -74.001 30.5s-53.334 -10.167 -74.001 -30.5s-31 -45.166 -31 -74.499z
M407.002 161.998c0 48.667 17.167 90 51.5 124s75.5 51 123.5 51c49.333 0 90.833 -16.833 124.5 -50.5s50.5 -75.167 50.5 -124.5c0 -48 -17 -89.167 -51 -123.5s-75.333 -51.5 -124 -51.5s-90 17 -124 51s-51 75.333 -51 124zM477.002 161.998
c0 -29.333 10.1689 -54.168 30.502 -74.501s45.166 -30.5 74.499 -30.5s54.166 10.333 74.499 31s30.5 45.334 30.5 74.001c0 29.333 -10.167 54.166 -30.5 74.499s-45.166 30.5 -74.499 30.5c-28.667 0 -53.334 -10.167 -74.001 -30.5s-31 -45.166 -31 -74.499z
M806.004 161.996c0 48.667 17.167 90 51.5 124s75.5 51 123.5 51c48.667 0 90 -16.833 124 -50.5s51 -75.167 51 -124.5c0 -48 -17 -89.167 -51 -123.5s-75.333 -51.5 -124 -51.5s-90 17 -124 51s-51 75.333 -51 124zM876.004 161.996
c0 -29.333 10.335 -54.168 31.002 -74.501s45.334 -30.5 74.001 -30.5c29.333 0 54.166 10.333 74.499 31s30.5 45.334 30.5 74.001c0 29.333 -10.333 54.166 -31 74.499s-45.334 30.5 -74.001 30.5s-53.334 -10.167 -74.001 -30.5s-31 -45.166 -31 -74.499z" />
    <glyph glyph-name="guilsinglleft" unicode="&#x2039;" horiz-adv-x="252" 
d="M117 301l94 -168l-58 -32l-113 200l114 200l58 -32z" />
    <glyph glyph-name="guilsinglright" unicode="&#x203a;" horiz-adv-x="252" 
d="M135 301l-95 168l58 32l114 -200l-113 -200l-58 32z" />
    <glyph glyph-name="Euro" unicode="&#x20ac;" 
d="M510 702l0.00195312 -80.002c-36.667 39.333 -87.667 59 -153 59c-55.333 0 -98.5 -19 -129.5 -57s-49.833 -88 -56.5 -150h295l-20 -61h-283c-0.666992 -7.33301 -1 -20.666 -1 -39.999c0 -6 0.166992 -13.667 0.5 -23s0.5 -15.666 0.5 -18.999h256l-20 -62h-228
c8 -67.333 28 -119.166 60 -155.499s74.333 -54.5 127 -54.5c62 0 112.667 19.667 152 59v-81c-14 -13.333 -35.167 -24.833 -63.5 -34.5s-60.833 -14.5 -97.5 -14.5c-144 0 -227.333 93.667 -250 281h-72l20 62h46c-1.33301 13.333 -2 27.333 -2 42
c0 12 0.666992 25.333 2 40h-66l20 61h51c10.667 85.333 36.5 153.166 77.5 203.499s98.833 75.5 173.5 75.5c35.333 0 67.166 -5 95.499 -15s50.166 -22 65.499 -36z" />
    <glyph glyph-name="afii61352" unicode="&#x2116;" horiz-adv-x="1060" 
d="M78 0v740h100l414 -614v614h74v-740h-74l-440 650v-650h-74zM736 590c0 41.333 14.667 76.666 44 105.999s64.666 44 105.999 44s76.666 -14.667 105.999 -44s44 -64.666 44 -105.999s-14.667 -76.666 -44 -105.999s-64.666 -44 -105.999 -44s-76.666 14.667 -105.999 44
s-44 64.666 -44 105.999zM792 590c0 -25.333 9.33301 -47.333 28 -66s40.667 -28 66 -28s47.333 9.33301 66 28s28 40.667 28 66s-9.33301 47.333 -28 66s-40.667 28 -66 28s-47.333 -9.33301 -66 -28s-28 -40.667 -28 -66zM750 367h272v-67h-272v67z" />
    <glyph glyph-name="trademark" unicode="&#x2122;" horiz-adv-x="1000" 
d="M938 740v-420h-66v359l-144 -359h-40l-144 359v-359h-66v420h106l124 -298l124 298h106zM404 740v-60h-133v-360h-74v360h-134v60h341z" />
    <glyph glyph-name=".null" horiz-adv-x="0" 
 />
    <glyph glyph-name="nonmarkingreturn" horiz-adv-x="333" 
 />
    <glyph glyph-name="hyphenminus" horiz-adv-x="332" 
d="M30 334h272v-67h-272v67z" />
    <glyph glyph-name="accent" horiz-adv-x="2" 
d="M-403 669l192 116l35 -58l-193 -114z" />
    <glyph glyph-name="Accent" horiz-adv-x="2" 
d="M-454 836l192 116l35 -58l-193 -114z" />
    </font>
</defs>
</svg>
