<?xml version="1.0" encoding="utf-8"?>
<!-- Generator: Adobe Illustrator 16.0.0, SVG Export Plug-In . SVG Version: 6.00 Build 0)  -->
<!DOCTYPE svg PUBLIC "-//W3C//DTD SVG 1.1//EN" "http://www.w3.org/Graphics/SVG/1.1/DTD/svg11.dtd">
<svg version="1.1" id="Capa_1" xmlns="http://www.w3.org/2000/svg" xmlns:xlink="http://www.w3.org/1999/xlink" x="0px" y="0px"
	 width="40px" height="40px" viewBox="0 0 40 40" enable-background="new 0 0 40 40" xml:space="preserve">
<g opacity="0.5">
	<g>
		<g>
			<path fill="#CCCCCC" d="M20,0C8.955,0,0,8.955,0,20c0,11.048,8.955,20,20,20c11.048,0,20-8.952,20-20C40,8.955,31.048,0,20,0z
				 M26.267,20.947l-8.648,8.647c-0.52,0.517-1.365,0.517-1.885,0c-0.52-0.521-0.52-1.368,0-1.886L23.443,20l-7.71-7.709
				c-0.52-0.52-0.52-1.365,0-1.885s1.365-0.52,1.885,0l8.648,8.648c0.267,0.261,0.392,0.605,0.39,0.947
				C26.656,20.344,26.527,20.686,26.267,20.947z"/>
		</g>
	</g>
</g>
</svg>
