<?xml version="1.0" encoding="utf-8"?>
<!-- Generated by IcoMoon.io -->
<!DOCTYPE svg PUBLIC "-//W3C//DTD SVG 1.1//EN" "http://www.w3.org/Graphics/SVG/1.1/DTD/svg11.dtd">
<svg version="1.1" xmlns="http://www.w3.org/2000/svg" xmlns:xlink="http://www.w3.org/1999/xlink" width="32" height="32" viewBox="0 0 32 32">
<path fill="#444444" d="M18.842 16l12.881-12.88c0.277-0.278 0.277-0.727 0-1.005l-1.837-1.838c-0.133-0.133-0.314-0.208-0.503-0.208s-0.37 0.075-0.503 0.208l-12.88 12.88-12.88-12.88c-0.267-0.267-0.739-0.267-1.005 0l-1.837 1.838c-0.278 0.278-0.278 0.727 0 1.005l12.88 12.88-12.88 12.88c-0.278 0.278-0.278 0.727 0 1.005l1.837 1.838c0.133 0.133 0.314 0.208 0.503 0.208s0.369-0.075 0.502-0.208l12.88-12.88 12.88 12.88c0.133 0.133 0.314 0.208 0.503 0.208s0.37-0.075 0.503-0.208l1.837-1.838c0.277-0.278 0.277-0.727 0-1.005l-12.881-12.88z"></path>
</svg>
